<svg version="1.1" id="Layer_1" xmlns="http://www.w3.org/2000/svg" xmlns:xlink="http://www.w3.org/1999/xlink" x="0px" y="0px"
	 width="100%" viewBox="0 0 806 1189" enable-background="new 0 0 806 1189" xml:space="preserve">
<path fill="#F8F8F8" opacity="1.000000" stroke="none" 
	d="
M1.000000,1189.000000 
	C1.000000,793.050659 1.000000,397.101349 1.000000,1.076015 
	C269.581573,1.076015 538.163208,1.076015 807.000000,1.076015 
	C807.000000,396.697540 807.000000,792.395142 806.771851,1188.644043 
	C806.251160,1189.388306 806.069885,1189.656616 806.000000,1190.000000 
	C538.302429,1190.000000 270.604828,1190.000000 2.359441,1189.770508 
	C1.608087,1189.260254 1.337547,1189.079834 1.000000,1189.000000 
M523.500000,1179.000244 
	C593.664062,1179.000244 663.828064,1179.000366 733.992126,1179.000000 
	C747.858582,1179.000000 753.000183,1173.887573 753.000183,1160.098755 
	C753.000427,830.779175 753.000366,501.459595 753.000366,172.139999 
	C753.000366,138.474747 752.939087,104.809288 753.046936,71.144379 
	C753.071350,63.520008 750.352783,57.961658 743.129517,54.887047 
	C742.249084,54.512287 741.315308,53.525146 741.021729,52.621773 
	C737.421265,41.543839 733.971863,38.999779 722.231079,38.999767 
	C504.906830,38.999485 287.582489,39.067390 70.258492,38.829018 
	C57.382759,38.814896 50.826756,45.805202 50.833729,58.150879 
	C51.038399,420.468933 50.999561,782.787170 50.999592,1145.105347 
	C50.999592,1146.271973 50.990471,1147.438721 51.002075,1148.605225 
	C51.068436,1155.276489 54.259354,1159.897949 60.150818,1162.888184 
	C61.286015,1163.464478 62.634228,1164.522705 62.968613,1165.634277 
	C66.041595,1175.847412 70.179916,1178.999146 81.018448,1178.999268 
	C228.178970,1179.000488 375.339478,1179.000244 523.500000,1179.000244 
z"/>
<path fill="#DBDCDD" opacity="1.000000" stroke="none" 
	d="
M1.000000,1189.500000 
	C1.337547,1189.079834 1.608087,1189.260254 1.905809,1189.770508 
	C1.666667,1190.000000 1.333333,1190.000000 1.000000,1189.500000 
z"/>
<path fill="#DBDCDD" opacity="1.000000" stroke="none" 
	d="
M806.500000,1190.000000 
	C806.069885,1189.656616 806.251160,1189.388306 806.771851,1189.097656 
	C807.000000,1189.333374 807.000000,1189.666626 806.500000,1190.000000 
z"/>
<path fill="#000000" opacity="1.000000" stroke="none" 
	d="
M523.000000,1179.000244 
	C375.339478,1179.000244 228.178970,1179.000488 81.018448,1178.999268 
	C70.179916,1178.999146 66.041595,1175.847412 62.968613,1165.634277 
	C62.634228,1164.522705 61.286015,1163.464478 60.150818,1162.888184 
	C54.259354,1159.897949 51.068436,1155.276489 51.002075,1148.605225 
	C50.990471,1147.438721 50.999592,1146.271973 50.999592,1145.105347 
	C50.999561,782.787170 51.038399,420.468933 50.833729,58.150879 
	C50.826756,45.805202 57.382759,38.814896 70.258492,38.829018 
	C287.582489,39.067390 504.906830,38.999485 722.231079,38.999767 
	C733.971863,38.999779 737.421265,41.543839 741.021729,52.621773 
	C741.315308,53.525146 742.249084,54.512287 743.129517,54.887047 
	C750.352783,57.961658 753.071350,63.520008 753.046936,71.144379 
	C752.939087,104.809288 753.000366,138.474747 753.000366,172.139999 
	C753.000366,501.459595 753.000427,830.779175 753.000183,1160.098755 
	C753.000183,1173.887573 747.858582,1179.000000 733.992126,1179.000000 
	C663.828064,1179.000366 593.664062,1179.000244 523.000000,1179.000244 
M647.500000,41.999146 
	C454.666779,41.999149 261.833527,41.998734 69.000298,42.000278 
	C58.296810,42.000362 54.001404,46.181274 54.001328,56.625092 
	C53.998745,419.958221 53.998566,783.291382 54.002274,1146.624512 
	C54.002377,1156.557617 58.398388,1160.996582 68.250008,1160.996826 
	C286.749908,1161.001831 505.249786,1161.001831 723.749695,1160.996826 
	C733.601929,1160.996582 737.997437,1156.558350 737.997498,1146.624756 
	C738.001221,783.124939 738.001404,419.625153 737.996277,56.125332 
	C737.996155,46.531967 733.514404,42.011230 723.999939,42.004879 
	C698.833313,41.988083 673.666626,41.999161 647.500000,41.999146 
z"/>
<path fill="#F2E9ED" opacity="1.000000" stroke="none" 
	d="
M648.000000,41.999146 
	C673.666626,41.999161 698.833313,41.988083 723.999939,42.004879 
	C733.514404,42.011230 737.996155,46.531967 737.996277,56.125332 
	C738.001404,419.625153 738.001221,783.124939 737.997498,1146.624756 
	C737.997437,1156.558350 733.601929,1160.996582 723.749695,1160.996826 
	C505.249786,1161.001831 286.749908,1161.001831 68.250008,1160.996826 
	C58.398388,1160.996582 54.002377,1156.557617 54.002274,1146.624512 
	C53.998566,783.291382 53.998745,419.958221 54.001328,56.625092 
	C54.001404,46.181274 58.296810,42.000362 69.000298,42.000278 
	C261.833527,41.998734 454.666779,41.999149 648.000000,41.999146 
M100.945839,379.929108 
	C104.692192,384.302734 109.749214,384.776581 115.029526,384.776184 
	C302.498291,384.762848 489.967072,384.766541 677.435852,384.765533 
	C691.137878,384.765442 696.765503,379.093445 696.765686,365.291290 
	C696.766785,278.139130 696.765259,190.986969 696.763428,103.834816 
	C696.763428,102.335121 697.210632,100.632935 696.656555,99.374107 
	C695.070251,95.770439 693.075317,92.346657 690.842590,88.305779 
	C686.813660,82.226234 681.252747,79.904251 673.889465,79.908829 
	C485.990021,80.025482 298.090454,80.000450 110.190895,80.001617 
	C97.404083,80.001694 92.001846,85.409409 92.001617,98.208130 
	C92.000061,185.827957 92.067757,273.447937 91.887184,361.067383 
	C91.870857,368.988556 94.158974,375.006958 100.945839,379.929108 
M549.937134,900.525391 
	C550.687622,903.923279 551.238647,907.380066 552.220642,910.709656 
	C559.044922,933.848694 573.896545,949.204895 597.542480,954.467041 
	C620.556091,959.588440 640.532043,952.761536 655.999939,934.948425 
	C671.722595,916.842102 673.516602,895.850281 666.818115,873.523926 
	C657.595215,842.783508 626.497498,824.261292 595.899841,831.394104 
	C564.640808,838.681152 544.319885,868.790405 549.937134,900.525391 
M561.671936,795.833374 
	C580.884094,822.333801 616.716858,828.943054 643.771362,810.976379 
	C665.828125,796.328674 674.964966,771.047241 667.912231,742.875610 
	C661.596191,717.646729 645.858154,701.296875 620.156372,696.158386 
	C595.548279,691.238586 571.311157,701.810608 558.505920,722.695862 
	C543.431641,747.282043 547.135620,771.572754 561.671936,795.833374 
M617.776917,425.691681 
	C596.986511,422.894958 579.059998,428.981476 564.978882,444.363556 
	C547.200317,463.784668 545.369446,486.381409 553.776917,510.508392 
	C565.383118,543.814697 602.405029,560.046936 634.690369,545.936096 
	C661.534546,534.203430 675.767761,504.790588 668.692627,475.670654 
	C661.885437,447.653412 643.908325,429.750061 617.776917,425.691681 
M249.934021,1014.492188 
	C247.753403,1025.050537 249.364151,1035.353638 252.148804,1045.543579 
	C261.894836,1081.207520 298.916840,1100.173828 332.638977,1086.822021 
	C362.358734,1075.054810 376.662292,1043.950073 367.456085,1011.107727 
	C359.720520,983.511658 337.297699,965.370056 310.447510,964.983948 
	C280.794952,964.557495 257.354156,983.434753 249.934021,1014.492188 
M346.513336,809.016296 
	C368.162354,791.510315 374.540436,769.094666 367.916107,742.489502 
	C359.325256,707.986084 326.509003,687.987000 293.095978,697.120544 
	C262.041565,705.609436 243.047562,737.290100 250.844177,770.997864 
	C261.201172,815.775085 308.960114,835.466919 346.513336,809.016296 
M462.723267,955.234375 
	C474.231140,953.545227 484.463501,948.924805 493.008057,941.091858 
	C513.429138,922.371582 517.745789,899.360535 509.772217,873.647888 
	C502.616699,850.573120 487.078247,835.708557 463.273499,831.201660 
	C439.086975,826.622681 418.961212,834.791382 403.831451,854.275146 
	C382.988953,881.115723 392.635406,919.073608 409.459381,936.701355 
	C423.757019,951.682129 441.248291,957.952148 462.723267,955.234375 
M549.128906,1030.185547 
	C550.111572,1035.231934 550.796814,1040.357910 552.124451,1045.311890 
	C562.003723,1082.175781 600.949280,1101.099121 635.168701,1085.762817 
	C663.199280,1073.200195 676.335205,1043.023804 667.560425,1011.351135 
	C660.021790,984.140015 637.955750,965.828064 611.726074,965.015930 
	C575.311462,963.888428 548.069763,991.818726 549.128906,1030.185547 
M182.733582,819.246277 
	C185.582474,818.345520 188.512573,817.642883 191.267792,816.513550 
	C220.206314,804.651794 234.074768,774.865356 225.879410,742.321167 
	C217.243851,708.028809 184.779785,688.200745 151.444946,697.045959 
	C119.567131,705.504517 101.113091,738.079163 108.797287,770.616821 
	C117.149834,805.984497 146.672134,826.349915 182.733582,819.246277 
M505.202209,997.277588 
	C483.746643,957.893188 430.628967,953.557678 403.920563,989.164124 
	C391.060638,1006.308411 389.429138,1025.394409 395.121124,1045.624512 
	C402.227051,1070.879761 422.970795,1088.665771 448.308960,1090.871948 
	C472.954773,1093.017700 496.757263,1079.566162 507.500458,1057.164795 
	C517.104126,1037.139648 514.319031,1017.405945 505.202209,997.277588 
M393.367645,741.963745 
	C390.342590,755.245422 392.468689,768.077515 396.853241,780.678589 
	C408.560516,814.324951 446.437042,830.372070 478.763794,815.420166 
	C506.063293,802.793457 518.726135,774.121399 510.933624,742.578918 
	C503.827972,713.816406 480.143188,694.848816 451.499420,694.981995 
	C423.937836,695.110107 400.130615,714.116455 393.367645,741.963745 
M168.425552,964.983704 
	C163.473114,965.490662 158.394211,965.460205 153.588623,966.591125 
	C120.515938,974.374451 101.764778,1005.730103 108.615288,1039.400757 
	C115.133545,1071.438354 139.410858,1089.543945 164.832214,1090.890381 
	C204.826233,1093.008667 234.807755,1058.139771 227.203903,1018.767029 
	C220.995697,986.620972 199.353058,966.499512 168.425552,964.983704 
M164.694092,955.951355 
	C181.430771,956.702576 196.369034,951.925842 208.658005,940.472107 
	C228.600540,921.885071 232.374161,899.130920 224.880585,873.728638 
	C217.571014,848.950073 195.445801,831.137207 170.502426,830.038147 
	C144.103409,828.874939 120.739784,843.981873 111.062508,868.025391 
	C98.778725,898.544861 114.190971,951.014893 164.694092,955.951355 
M279.272034,947.228333 
	C305.879639,962.663879 337.734924,957.467529 356.821228,934.072632 
	C373.242828,913.944031 373.954926,891.335510 364.804016,868.182068 
	C356.208374,846.433594 339.660065,833.557617 316.477844,830.570740 
	C294.547882,827.745178 276.284607,835.544861 262.094299,852.585144 
	C237.943802,881.586304 249.621063,929.614685 279.272034,947.228333 
M616.171204,685.832947 
	C621.021973,684.721191 626.037048,684.073364 630.696899,682.422668 
	C661.676208,671.448303 676.878723,639.746155 667.473206,606.155579 
	C659.903198,579.120361 638.057983,560.950195 612.011353,560.024353 
	C573.177002,558.643921 543.999268,591.449768 549.861450,629.902161 
	C555.309509,665.637390 580.303833,687.045593 616.171204,685.832947 
M478.200775,680.755127 
	C507.501251,667.067993 524.142395,633.196472 506.055511,594.156433 
	C491.849762,563.493774 454.817047,551.227905 424.706146,566.518127 
	C401.900482,578.098755 386.666718,605.068665 393.910858,636.234070 
	C403.034943,675.487244 440.836609,696.096680 478.200775,680.755127 
M360.597656,659.091614 
	C371.034271,642.978271 372.575714,625.667419 367.919464,607.358093 
	C359.158997,572.910156 326.341187,552.931396 292.974457,562.147644 
	C262.150482,570.661438 242.538681,602.190430 250.958191,636.097656 
	C257.307587,661.668091 272.179108,679.165771 298.244965,684.586243 
	C323.826080,689.905823 344.675903,680.778870 360.597656,659.091614 
M121.317528,663.167664 
	C139.234863,683.989929 164.437637,691.128662 188.749664,682.519958 
	C213.934982,673.602112 236.162140,645.342224 225.921097,607.505249 
	C219.134018,582.429504 203.612427,565.840088 177.791260,561.165771 
	C152.039932,556.504089 131.173477,565.871704 116.589043,587.592102 
	C102.045708,609.251404 104.091698,639.036621 121.317528,663.167664 
M398.474365,514.982727 
	C412.437622,544.970459 445.128540,558.586304 475.233673,546.963745 
	C499.999573,537.402466 520.747131,509.512268 510.967194,472.417145 
	C504.003174,446.002716 483.453217,427.543976 457.331757,425.141144 
	C432.236511,422.832703 408.018524,436.929810 397.410065,460.019073 
	C389.045227,478.225159 391.231506,496.288940 398.474365,514.982727 
M268.839874,440.348724 
	C251.149429,457.263428 245.656128,477.680450 251.033356,501.381012 
	C257.513824,529.944214 280.180328,549.986084 307.408813,550.973389 
	C347.680969,552.433533 376.671967,517.928772 369.029846,477.632812 
	C359.706635,428.472626 307.879669,408.838654 268.839874,440.348724 
M125.801277,441.315948 
	C107.512123,459.573944 103.331993,481.206573 110.136948,505.636169 
	C120.061531,541.265198 157.069077,560.217163 190.755035,546.774536 
	C220.072327,535.075256 234.384689,504.473328 225.783478,471.878387 
	C213.699371,426.084625 162.201752,410.010803 125.801277,441.315948 
z"/>
<path fill="#000000" opacity="1.000000" stroke="none" 
	d="
M100.853195,379.241547 
	C94.158974,375.006958 91.870857,368.988556 91.887184,361.067383 
	C92.067757,273.447937 92.000061,185.827957 92.001617,98.208130 
	C92.001846,85.409409 97.404083,80.001694 110.190895,80.001617 
	C298.090454,80.000450 485.990021,80.025482 673.889465,79.908829 
	C681.252747,79.904251 686.813660,82.226234 690.985718,89.004929 
	C691.432678,92.667885 692.000366,95.631538 692.002014,98.595512 
	C692.049377,186.070312 692.040649,273.545135 692.040100,361.019958 
	C692.040039,374.817810 686.833191,380.040039 673.075256,380.040070 
	C486.795532,380.040497 300.515839,380.045898 114.236130,380.006989 
	C109.775101,380.006073 105.314171,379.507843 100.853195,379.241547 
M229.500000,87.000511 
	C189.672729,87.000526 149.845444,86.998665 110.018173,87.002052 
	C101.425209,87.002777 99.002602,89.401215 99.002327,97.920258 
	C98.999443,185.906754 98.999763,273.893250 99.001747,361.879761 
	C99.001945,370.700348 101.343002,372.998566 110.318130,372.998627 
	C298.122650,372.999756 485.927155,372.999786 673.731689,372.998535 
	C682.673828,372.998474 684.998230,370.695312 684.998413,361.829926 
	C685.000305,274.010071 685.000061,186.190201 684.998779,98.370338 
	C684.998657,89.208122 682.751282,87.001076 673.432068,87.001030 
	C525.788025,87.000328 378.144012,87.000519 229.500000,87.000511 
z"/>
<path fill="#8B8A8B" opacity="1.000000" stroke="none" 
	d="
M100.899521,379.585327 
	C105.314171,379.507843 109.775101,380.006073 114.236130,380.006989 
	C300.515839,380.045898 486.795532,380.040497 673.075256,380.040070 
	C686.833191,380.040039 692.040039,374.817810 692.040100,361.019958 
	C692.040649,273.545135 692.049377,186.070312 692.002014,98.595512 
	C692.000366,95.631538 691.432678,92.667885 691.184937,89.278107 
	C693.075317,92.346657 695.070251,95.770439 696.656555,99.374107 
	C697.210632,100.632935 696.763428,102.335121 696.763428,103.834816 
	C696.765259,190.986969 696.766785,278.139130 696.765686,365.291290 
	C696.765503,379.093445 691.137878,384.765442 677.435852,384.765533 
	C489.967072,384.766541 302.498291,384.762848 115.029526,384.776184 
	C109.749214,384.776581 104.692192,384.302734 100.899521,379.585327 
z"/>
<path fill="#090909" opacity="1.000000" stroke="none" 
	d="
M549.884216,900.089355 
	C544.319885,868.790405 564.640808,838.681152 595.899841,831.394104 
	C626.497498,824.261292 657.595215,842.783508 666.818115,873.523926 
	C673.516602,895.850281 671.722595,916.842102 655.999939,934.948425 
	C640.532043,952.761536 620.556091,959.588440 597.542480,954.467041 
	C573.896545,949.204895 559.044922,933.848694 552.220642,910.709656 
	C551.238647,907.380066 550.687622,903.923279 549.884216,900.089355 
M665.919189,893.166443 
	C666.505981,855.887756 636.846069,828.821289 600.831116,833.769653 
	C568.371765,838.229431 546.239075,870.029297 553.330078,902.018433 
	C560.582642,934.736206 594.023193,954.544312 625.696106,944.273987 
	C649.825684,936.449707 662.845520,919.101624 665.919189,893.166443 
z"/>
<path fill="#090909" opacity="1.000000" stroke="none" 
	d="
M561.440552,795.557007 
	C547.135620,771.572754 543.431641,747.282043 558.505920,722.695862 
	C571.311157,701.810608 595.548279,691.238586 620.156372,696.158386 
	C645.858154,701.296875 661.596191,717.646729 667.912231,742.875610 
	C674.964966,771.047241 665.828125,796.328674 643.771362,810.976379 
	C616.716858,828.943054 580.884094,822.333801 561.440552,795.557007 
M660.949646,731.716125 
	C649.094543,707.567566 626.530334,695.261353 600.594849,698.799438 
	C571.988525,702.701904 550.430664,728.956299 552.070618,757.895142 
	C553.760925,787.723450 578.285828,811.504944 607.832520,811.966675 
	C649.369629,812.615784 676.888062,771.630737 660.949646,731.716125 
z"/>
<path fill="#090909" opacity="1.000000" stroke="none" 
	d="
M618.212036,425.761169 
	C643.908325,429.750061 661.885437,447.653412 668.692627,475.670654 
	C675.767761,504.790588 661.534546,534.203430 634.690369,545.936096 
	C602.405029,560.046936 565.383118,543.814697 553.776917,510.508392 
	C545.369446,486.381409 547.200317,463.784668 564.978882,444.363556 
	C579.059998,428.981476 596.986511,422.894958 618.212036,425.761169 
M574.395264,439.824341 
	C557.450317,453.654541 549.877563,471.351440 552.797485,493.154755 
	C557.105103,525.319702 587.717590,546.951660 620.082153,540.879578 
	C651.338989,535.015381 671.892883,503.075684 664.381531,472.040527 
	C654.674011,431.931122 609.744507,415.511902 574.395264,439.824341 
z"/>
<path fill="#0A0A0A" opacity="1.000000" stroke="none" 
	d="
M249.984131,1014.063904 
	C257.354156,983.434753 280.794952,964.557495 310.447510,964.983948 
	C337.297699,965.370056 359.720520,983.511658 367.456085,1011.107727 
	C376.662292,1043.950073 362.358734,1075.054810 332.638977,1086.822021 
	C298.916840,1100.173828 261.894836,1081.207520 252.148804,1045.543579 
	C249.364151,1035.353638 247.753403,1025.050537 249.984131,1014.063904 
M330.906403,1077.615845 
	C356.365051,1065.882568 369.367432,1042.143433 365.069366,1015.242554 
	C360.550873,986.961975 334.562805,966.440979 305.365295,968.098389 
	C276.730988,969.723816 253.028656,993.889465 252.056488,1022.449219 
	C250.638260,1064.113770 290.373840,1092.315430 330.906403,1077.615845 
z"/>
<path fill="#0A0A0A" opacity="1.000000" stroke="none" 
	d="
M346.220123,809.220459 
	C308.960114,835.466919 261.201172,815.775085 250.844177,770.997864 
	C243.047562,737.290100 262.041565,705.609436 293.095978,697.120544 
	C326.509003,687.987000 359.325256,707.986084 367.916107,742.489502 
	C374.540436,769.094666 368.162354,791.510315 346.220123,809.220459 
M270.511017,797.004639 
	C284.365570,809.099670 300.307617,814.021729 318.581512,811.101196 
	C347.107880,806.542175 367.794952,780.302063 365.887634,751.029358 
	C364.029358,722.509338 340.081573,699.100586 311.698212,698.059937 
	C287.540833,697.174133 265.935028,710.777283 256.550293,732.781372 
	C247.203293,754.697021 252.378998,779.257935 270.511017,797.004639 
z"/>
<path fill="#0A0A0A" opacity="1.000000" stroke="none" 
	d="
M462.285095,955.313965 
	C441.248291,957.952148 423.757019,951.682129 409.459381,936.701355 
	C392.635406,919.073608 382.988953,881.115723 403.831451,854.275146 
	C418.961212,834.791382 439.086975,826.622681 463.273499,831.201660 
	C487.078247,835.708557 502.616699,850.573120 509.772217,873.647888 
	C517.745789,899.360535 513.429138,922.371582 493.008057,941.091858 
	C484.463501,948.924805 474.231140,953.545227 462.285095,955.313965 
M507.084106,875.658630 
	C499.340424,848.138611 473.923248,830.278503 446.677399,833.211914 
	C418.593079,836.235596 396.497803,858.552002 395.208282,886.137695 
	C394.090851,910.042114 404.002686,928.707397 425.204468,940.046692 
	C446.383240,951.373779 467.603119,949.638245 486.579437,935.010498 
	C505.710938,920.263123 512.361816,900.222534 507.084106,875.658630 
z"/>
<path fill="#090909" opacity="1.000000" stroke="none" 
	d="
M549.100220,1029.719849 
	C548.069763,991.818726 575.311462,963.888428 611.726074,965.015930 
	C637.955750,965.828064 660.021790,984.140015 667.560425,1011.351135 
	C676.335205,1043.023804 663.199280,1073.200195 635.168701,1085.762817 
	C600.949280,1101.099121 562.003723,1082.175781 552.124451,1045.311890 
	C550.796814,1040.357910 550.111572,1035.231934 549.100220,1029.719849 
M552.328003,1030.891968 
	C556.522339,1066.596802 589.190918,1085.917725 617.758972,1081.259888 
	C646.595703,1076.558228 667.911987,1050.466064 665.898804,1021.292542 
	C663.861755,991.773010 639.177063,968.301147 609.886536,968.032166 
	C576.017639,967.721191 550.517212,995.112549 552.328003,1030.891968 
z"/>
<path fill="#0A0A0A" opacity="1.000000" stroke="none" 
	d="
M182.335083,819.369019 
	C146.672134,826.349915 117.149834,805.984497 108.797287,770.616821 
	C101.113091,738.079163 119.567131,705.504517 151.444946,697.045959 
	C184.779785,688.200745 217.243851,708.028809 225.879410,742.321167 
	C234.074768,774.865356 220.206314,804.651794 191.267792,816.513550 
	C188.512573,817.642883 185.582474,818.345520 182.335083,819.369019 
M198.145432,707.267151 
	C185.650665,699.513184 172.235764,696.475403 157.580994,698.854126 
	C128.969391,703.498291 108.320351,729.462280 110.104401,758.798340 
	C111.860878,787.681152 136.300446,811.296753 165.123535,811.962524 
	C190.759796,812.554626 213.235168,796.794312 221.101257,772.709412 
	C229.070206,748.309570 220.228790,722.633911 198.145432,707.267151 
z"/>
<path fill="#0A0A0A" opacity="1.000000" stroke="none" 
	d="
M505.394196,997.597534 
	C514.319031,1017.405945 517.104126,1037.139648 507.500458,1057.164795 
	C496.757263,1079.566162 472.954773,1093.017700 448.308960,1090.871948 
	C422.970795,1088.665771 402.227051,1070.879761 395.121124,1045.624512 
	C389.429138,1025.394409 391.060638,1006.308411 403.920563,989.164124 
	C430.628967,953.557678 483.746643,957.893188 505.394196,997.597534 
M454.287018,968.044495 
	C450.308960,968.333984 446.286865,968.342163 442.359833,968.957458 
	C410.920013,973.883606 389.839111,1004.787415 396.166595,1036.525879 
	C402.363800,1067.610962 434.090637,1087.909424 464.876953,1080.486084 
	C492.492554,1073.827271 511.029968,1048.589600 508.863708,1020.600098 
	C506.665649,992.200012 484.602814,970.605652 454.287018,968.044495 
z"/>
<path fill="#0A0A0A" opacity="1.000000" stroke="none" 
	d="
M393.504974,741.567749 
	C400.130615,714.116455 423.937836,695.110107 451.499420,694.981995 
	C480.143188,694.848816 503.827972,713.816406 510.933624,742.578918 
	C518.726135,774.121399 506.063293,802.793457 478.763794,815.420166 
	C446.437042,830.372070 408.560516,814.324951 396.853241,780.678589 
	C392.468689,768.077515 390.342590,755.245422 393.504974,741.567749 
M505.418701,774.718018 
	C508.866211,765.133362 509.778229,755.377686 508.117645,745.263672 
	C503.474579,716.984375 477.611359,696.462585 448.395325,698.095703 
	C419.767181,699.695984 396.042847,723.857422 395.056396,752.417480 
	C394.088440,780.441528 412.712738,804.680847 439.830719,810.690674 
	C467.155243,816.746338 494.208893,802.143616 505.418701,774.718018 
z"/>
<path fill="#0A0A0A" opacity="1.000000" stroke="none" 
	d="
M168.900513,964.993408 
	C199.353058,966.499512 220.995697,986.620972 227.203903,1018.767029 
	C234.807755,1058.139771 204.826233,1093.008667 164.832214,1090.890381 
	C139.410858,1089.543945 115.133545,1071.438354 108.615288,1039.400757 
	C101.764778,1005.730103 120.515938,974.374451 153.588623,966.591125 
	C158.394211,965.460205 163.473114,965.490662 168.900513,964.993408 
M134.075668,1071.493042 
	C146.879730,1080.183105 160.845413,1083.634521 176.247925,1081.158081 
	C208.047180,1076.045654 229.208557,1045.357300 222.828583,1013.458862 
	C216.571747,982.176086 184.636566,961.785400 153.722763,969.711426 
	C131.053864,975.523560 116.413101,990.166626 111.489830,1012.925537 
	C106.374657,1036.571655 114.449448,1056.120605 134.075668,1071.493042 
z"/>
<path fill="#0A0A0A" opacity="1.000000" stroke="none" 
	d="
M164.226135,955.928162 
	C114.190971,951.014893 98.778725,898.544861 111.062508,868.025391 
	C120.739784,843.981873 144.103409,828.874939 170.502426,830.038147 
	C195.445801,831.137207 217.571014,848.950073 224.880585,873.728638 
	C232.374161,899.130920 228.600540,921.885071 208.658005,940.472107 
	C196.369034,951.925842 181.430771,956.702576 164.226135,955.928162 
M165.621292,833.025940 
	C162.975586,833.307922 160.311783,833.475281 157.686920,833.889282 
	C125.893997,838.904846 104.673973,869.872498 111.197510,901.687195 
	C117.581673,932.822205 149.242111,952.943665 180.030960,945.433533 
	C208.000763,938.611023 226.971176,912.154480 223.763000,884.443970 
	C220.306778,854.590881 196.699890,833.377258 165.621292,833.025940 
z"/>
<path fill="#0A0A0A" opacity="1.000000" stroke="none" 
	d="
M278.952332,947.052979 
	C249.621063,929.614685 237.943802,881.586304 262.094299,852.585144 
	C276.284607,835.544861 294.547882,827.745178 316.477844,830.570740 
	C339.660065,833.557617 356.208374,846.433594 364.804016,868.182068 
	C373.954926,891.335510 373.242828,913.944031 356.821228,934.072632 
	C337.734924,957.467529 305.879639,962.663879 278.952332,947.052979 
M252.273239,895.898071 
	C256.520020,931.651917 289.313690,951.331909 318.757660,946.165405 
	C346.985443,941.212280 367.604614,915.487549 365.899109,886.294128 
	C364.222900,857.601746 340.007935,833.948120 311.391785,833.050293 
	C276.720245,831.962524 250.590515,859.301575 252.273239,895.898071 
z"/>
<path fill="#090909" opacity="1.000000" stroke="none" 
	d="
M615.706421,685.867432 
	C580.303833,687.045593 555.309509,665.637390 549.861450,629.902161 
	C543.999268,591.449768 573.177002,558.643921 612.011353,560.024353 
	C638.057983,560.950195 659.903198,579.120361 667.473206,606.155579 
	C676.878723,639.746155 661.676208,671.448303 630.696899,682.422668 
	C626.037048,684.073364 621.021973,684.721191 615.706421,685.867432 
M633.650330,568.725403 
	C622.960205,563.764526 611.884094,562.009644 600.117188,563.800354 
	C568.373047,568.631042 546.887634,599.362488 553.163025,631.289307 
	C559.289368,662.458130 590.828979,682.793274 621.674561,675.461914 
	C645.997559,669.680908 662.551086,650.827393 665.771240,625.238403 
	C668.549377,603.161194 655.772766,580.321533 633.650330,568.725403 
z"/>
<path fill="#0A0A0A" opacity="1.000000" stroke="none" 
	d="
M477.842285,680.884399 
	C440.836609,696.096680 403.034943,675.487244 393.910858,636.234070 
	C386.666718,605.068665 401.900482,578.098755 424.706146,566.518127 
	C454.817047,551.227905 491.849762,563.493774 506.055511,594.156433 
	C524.142395,633.196472 507.501251,667.067993 477.842285,680.884399 
M398.251007,638.993652 
	C398.823578,640.375244 399.364990,641.770752 399.973358,643.136353 
	C412.054749,670.257446 442.778809,683.556641 470.802155,673.802429 
	C498.354248,664.212219 514.342834,634.831970 507.336029,606.668640 
	C499.455292,574.992676 467.671204,556.391418 436.429199,565.171143 
	C405.222290,573.940979 388.084320,606.550598 398.251007,638.993652 
z"/>
<path fill="#0A0A0A" opacity="1.000000" stroke="none" 
	d="
M360.385956,659.384033 
	C344.675903,680.778870 323.826080,689.905823 298.244965,684.586243 
	C272.179108,679.165771 257.307587,661.668091 250.958191,636.097656 
	C242.538681,602.190430 262.150482,570.661438 292.974457,562.147644 
	C326.341187,552.931396 359.158997,572.910156 367.919464,607.358093 
	C372.575714,625.667419 371.034271,642.978271 360.385956,659.384033 
M269.476257,578.973083 
	C255.592804,593.081421 249.799774,609.854309 252.904633,629.520020 
	C257.874329,660.997253 288.448151,682.000427 320.324951,675.866821 
	C351.521179,669.864136 371.991699,637.851562 364.416077,606.915466 
	C353.942596,564.145752 303.842010,549.054871 269.476257,578.973083 
z"/>
<path fill="#0A0A0A" opacity="1.000000" stroke="none" 
	d="
M121.107025,662.880188 
	C104.091698,639.036621 102.045708,609.251404 116.589043,587.592102 
	C131.173477,565.871704 152.039932,556.504089 177.791260,561.165771 
	C203.612427,565.840088 219.134018,582.429504 225.921097,607.505249 
	C236.162140,645.342224 213.934982,673.602112 188.749664,682.519958 
	C164.437637,691.128662 139.234863,683.989929 121.107025,662.880188 
M178.928879,564.240356 
	C171.822083,564.121155 164.573532,563.033264 157.632782,564.048828 
	C125.877663,568.695557 104.705597,599.865540 111.191696,631.655457 
	C117.533203,662.736633 149.155609,682.905640 179.897949,675.476807 
	C205.676361,669.247498 223.782394,646.732422 223.975342,620.665955 
	C224.174667,593.740479 206.538239,571.336060 178.928879,564.240356 
z"/>
<path fill="#0B0906" opacity="1.000000" stroke="none" 
	d="
M398.305969,514.636292 
	C391.231506,496.288940 389.045227,478.225159 397.410065,460.019073 
	C408.018524,436.929810 432.236511,422.832703 457.331757,425.141144 
	C483.453217,427.543976 504.003174,446.002716 510.967194,472.417145 
	C520.747131,509.512268 499.999573,537.402466 475.233673,546.963745 
	C445.128540,558.586304 412.437622,544.970459 398.305969,514.636292 
M483.715240,437.712616 
	C471.042145,429.469696 457.311066,426.453827 442.306976,428.891296 
	C414.041687,433.483032 393.450775,459.409119 395.092957,488.577911 
	C396.706757,517.242859 420.828857,540.944763 449.405975,541.944763 
	C474.793518,542.833252 497.529144,527.481262 505.777344,503.880859 
	C514.265503,479.593842 505.826111,453.720856 483.715240,437.712616 
z"/>
<path fill="#0B0906" opacity="1.000000" stroke="none" 
	d="
M269.108398,440.114655 
	C307.879669,408.838654 359.706635,428.472626 369.029846,477.632812 
	C376.671967,517.928772 347.680969,552.433533 307.408813,550.973389 
	C280.180328,549.986084 257.513824,529.944214 251.033356,501.381012 
	C245.656128,477.680450 251.149429,457.263428 269.108398,440.114655 
M342.512451,531.083862 
	C360.661957,516.810364 368.578491,498.322632 365.052246,475.357727 
	C360.700623,447.017242 334.668274,426.477356 305.462311,428.091064 
	C276.811981,429.674103 252.863495,453.786011 252.124954,482.367950 
	C251.533173,505.270325 261.102295,523.271118 281.097107,534.490479 
	C301.635529,546.014893 322.235687,544.455933 342.512451,531.083862 
z"/>
<path fill="#0B0906" opacity="1.000000" stroke="none" 
	d="
M126.064560,441.075745 
	C162.201752,410.010803 213.699371,426.084625 225.783478,471.878387 
	C234.384689,504.473328 220.072327,535.075256 190.755035,546.774536 
	C157.069077,560.217163 120.061531,541.265198 110.136948,505.636169 
	C103.331993,481.206573 107.512123,459.573944 126.064560,441.075745 
M222.084412,470.658997 
	C214.303925,443.091949 188.704330,425.142456 161.566406,428.225983 
	C133.325531,431.434875 111.367363,453.748474 110.195564,481.362305 
	C109.179329,505.310425 119.188637,523.946655 140.481064,535.196960 
	C161.557266,546.332947 182.655807,544.575134 201.507858,530.067200 
	C220.681824,515.311646 227.368149,495.263397 222.084412,470.658997 
z"/>
<path fill="#FFFFFF" opacity="1.000000" stroke="none" 
	d="
M230.000000,87.000511 
	C378.144012,87.000519 525.788025,87.000328 673.432068,87.001030 
	C682.751282,87.001076 684.998657,89.208122 684.998779,98.370338 
	C685.000061,186.190201 685.000305,274.010071 684.998413,361.829926 
	C684.998230,370.695312 682.673828,372.998474 673.731689,372.998535 
	C485.927155,372.999786 298.122650,372.999756 110.318130,372.998627 
	C101.343002,372.998566 99.001945,370.700348 99.001747,361.879761 
	C98.999763,273.893250 98.999443,185.906754 99.002327,97.920258 
	C99.002602,89.401215 101.425209,87.002777 110.018173,87.002052 
	C149.845444,86.998665 189.672729,87.000526 230.000000,87.000511 
z"/>
<path fill="#7F7F7F" opacity="1.000000" stroke="none" 
	d="
M665.889221,893.615967 
	C662.845520,919.101624 649.825684,936.449707 625.696106,944.273987 
	C594.023193,954.544312 560.582642,934.736206 553.330078,902.018433 
	C546.239075,870.029297 568.371765,838.229431 600.831116,833.769653 
	C636.846069,828.821289 666.505981,855.887756 665.889221,893.615967 
M612.157410,896.841553 
	C615.229370,896.565491 618.343872,896.505188 621.353149,895.911621 
	C622.629150,895.659851 623.684509,894.289429 624.840149,893.427490 
	C623.735901,892.640442 622.690063,891.297852 621.516052,891.174438 
	C618.458008,890.853027 615.343872,891.066284 611.953979,891.066284 
	C611.953979,887.504395 612.203308,884.662415 611.846802,881.898682 
	C611.673584,880.556458 610.366516,879.360535 609.572815,878.098389 
	C608.487000,879.290405 606.686829,880.362488 606.462585,881.699036 
	C605.981995,884.563538 606.315308,887.564514 606.315308,891.078857 
	C602.759644,891.078857 599.778809,890.842834 596.870544,891.199402 
	C595.765564,891.334900 594.827698,892.833252 593.813721,893.710449 
	C594.890503,894.477539 595.908752,895.781494 597.055542,895.906494 
	C599.963501,896.223511 602.929016,896.011780 606.278503,896.011780 
	C606.278503,899.295959 605.944031,901.991455 606.401245,904.545166 
	C606.685547,906.133179 608.168396,907.506653 609.113281,908.976440 
	C610.060852,907.567627 611.508057,906.265564 611.837158,904.724609 
	C612.313782,902.493530 611.981506,900.089661 612.157410,896.841553 
z"/>
<path fill="#7F7F7F" opacity="1.000000" stroke="none" 
	d="
M661.094482,732.070190 
	C676.888062,771.630737 649.369629,812.615784 607.832520,811.966675 
	C578.285828,811.504944 553.760925,787.723450 552.070618,757.895142 
	C550.430664,728.956299 571.988525,702.701904 600.594849,698.799438 
	C626.530334,695.261353 649.094543,707.567566 661.094482,732.070190 
M609.458740,756.059143 
	C607.466431,756.065186 605.412537,755.780090 603.504272,756.183594 
	C602.311035,756.435974 601.337036,757.725525 600.264648,758.549683 
	C601.321899,759.366394 602.293396,760.697021 603.454529,760.890564 
	C605.716675,761.267761 608.129822,761.292480 610.397583,760.936218 
	C612.899536,760.543213 617.476135,759.302185 617.425049,758.871155 
	C616.875732,754.227966 612.933777,756.739319 609.458740,756.059143 
z"/>
<path fill="#808080" opacity="1.000000" stroke="none" 
	d="
M574.664246,439.588257 
	C609.744507,415.511902 654.674011,431.931122 664.381531,472.040527 
	C671.892883,503.075684 651.338989,535.015381 620.082153,540.879578 
	C587.717590,546.951660 557.105103,525.319702 552.797485,493.154755 
	C549.877563,471.351440 557.450317,453.654541 574.664246,439.588257 
M603.579102,486.064240 
	C601.747986,486.064941 599.842773,485.751404 598.108093,486.160828 
	C596.582703,486.520874 595.248291,487.690033 593.829529,488.501862 
	C595.169556,489.337006 596.488708,490.852783 597.853027,490.894501 
	C605.503174,491.128510 613.168091,491.130219 620.818054,490.892273 
	C622.180725,490.849884 623.496765,489.309235 624.834412,488.460449 
	C623.403320,487.662598 622.004333,486.253906 620.535278,486.176605 
	C615.223145,485.897186 609.887390,486.065186 603.579102,486.064240 
M609.426819,504.012115 
	C612.627991,503.826111 613.311035,501.580750 612.707336,499.161163 
	C612.400574,497.931763 610.851135,496.477722 609.613525,496.186127 
	C608.640503,495.956940 606.537537,497.125641 606.246582,498.074921 
	C605.540894,500.377563 605.101868,503.123291 609.426819,504.012115 
M612.865173,476.737976 
	C611.428284,475.528412 609.991394,474.318848 608.554565,473.109253 
	C607.662292,474.483276 606.069641,475.861908 606.078735,477.229950 
	C606.087402,478.545288 607.753906,479.849670 608.692017,481.158844 
	C610.086243,479.950623 611.480469,478.742432 612.865173,476.737976 
z"/>
<path fill="#BEADC6" opacity="1.000000" stroke="none" 
	d="
M330.544800,1077.757080 
	C290.373840,1092.315430 250.638260,1064.113770 252.056488,1022.449219 
	C253.028656,993.889465 276.730988,969.723816 305.365295,968.098389 
	C334.562805,966.440979 360.550873,986.961975 365.069366,1015.242554 
	C369.367432,1042.143433 356.365051,1065.882568 330.544800,1077.757080 
M310.187164,1043.884888 
	C310.963776,1042.889893 312.352142,1041.906494 312.371460,1040.896973 
	C312.399323,1039.438599 311.750732,1037.668701 310.768280,1036.608276 
	C310.228790,1036.026123 307.816376,1036.152832 307.304626,1036.797974 
	C306.404083,1037.932983 305.698120,1039.886719 306.064453,1041.167603 
	C306.401367,1042.345703 308.257111,1043.089355 310.187164,1043.884888 
z"/>
<path fill="#BEADC5" opacity="1.000000" stroke="none" 
	d="
M270.247620,796.767578 
	C252.378998,779.257935 247.203293,754.697021 256.550293,732.781372 
	C265.935028,710.777283 287.540833,697.174133 311.698212,698.059937 
	C340.081573,699.100586 364.029358,722.509338 365.887634,751.029358 
	C367.794952,780.302063 347.107880,806.542175 318.581512,811.101196 
	C300.307617,814.021729 284.365570,809.099670 270.247620,796.767578 
M307.776154,749.343384 
	C306.550507,749.580933 305.324860,749.818420 303.614197,750.149963 
	C303.795898,746.607849 303.953125,743.542603 304.133820,740.020020 
	C308.609955,740.020020 312.736755,740.181030 316.835846,739.914917 
	C317.960968,739.841797 319.003082,738.490417 320.083252,737.725586 
	C318.985809,736.978333 317.939880,735.698669 316.780945,735.586426 
	C313.651886,735.283386 310.474701,735.474548 307.316589,735.474792 
	C299.128357,735.475464 299.127228,735.476501 298.605347,743.401855 
	C298.485291,745.224670 298.357056,747.047180 298.264771,748.871521 
	C297.869171,756.692993 297.783112,756.326477 305.316162,754.468506 
	C308.133179,753.773804 312.634735,754.185730 314.269348,755.992249 
	C315.984802,757.888123 316.267670,762.530396 315.155548,765.096619 
	C314.186584,767.332336 310.561707,768.842712 307.806549,769.728516 
	C305.981506,770.315247 303.627869,769.061157 301.496155,768.967834 
	C300.296387,768.915283 299.066711,769.546631 297.850494,769.869873 
	C298.573425,771.041382 299.125305,773.043274 300.050323,773.233887 
	C303.244843,773.891968 306.599792,774.337830 309.838593,774.103577 
	C318.091217,773.506470 322.296875,768.350708 321.772644,760.069336 
	C321.301605,752.628418 317.154877,749.187134 307.776154,749.343384 
z"/>
<path fill="#BDADC5" opacity="1.000000" stroke="none" 
	d="
M507.177979,876.064087 
	C512.361816,900.222534 505.710938,920.263123 486.579437,935.010498 
	C467.603119,949.638245 446.383240,951.373779 425.204468,940.046692 
	C404.002686,928.707397 394.090851,910.042114 395.208282,886.137695 
	C396.497803,858.552002 418.593079,836.235596 446.677399,833.211914 
	C473.923248,830.278503 499.340424,848.138611 507.177979,876.064087 
M450.272522,904.925903 
	C448.149384,904.584900 446.035278,904.085999 443.899567,903.963196 
	C442.653290,903.891541 441.372375,904.421265 440.107056,904.680420 
	C440.947021,905.932434 441.611420,908.065247 442.659271,908.274109 
	C446.019012,908.943665 449.557373,909.332581 452.959778,909.042969 
	C459.781189,908.462402 463.694122,903.831360 463.721405,897.053833 
	C463.746765,890.749207 461.891815,888.768005 452.124573,885.345459 
	C455.564117,882.138550 458.813995,879.335205 461.748627,876.233582 
	C462.625732,875.306519 463.223175,873.330444 462.831757,872.233521 
	C462.513733,871.342285 460.540039,870.607239 459.274780,870.564331 
	C453.961060,870.384338 448.630341,870.341858 443.323456,870.605164 
	C442.126099,870.664490 440.999664,872.153381 439.840576,872.984192 
	C440.985901,873.662170 442.098999,874.849854 443.282440,874.924683 
	C447.196198,875.172180 451.135284,875.018066 454.962097,875.018066 
	C455.082825,875.583618 455.194550,875.815308 455.135651,875.873230 
	C452.528961,878.434021 449.744751,880.838257 447.355652,883.586243 
	C446.162476,884.958740 445.688141,886.956177 444.888641,888.670959 
	C446.489044,889.208557 448.052948,890.011780 449.696198,890.237793 
	C456.844299,891.220764 459.931213,894.431702 457.590179,899.637390 
	C456.572693,901.899902 453.319824,903.157166 450.272522,904.925903 
z"/>
<path fill="#808080" opacity="1.000000" stroke="none" 
	d="
M552.260864,1030.447510 
	C550.517212,995.112549 576.017639,967.721191 609.886536,968.032166 
	C639.177063,968.301147 663.861755,991.773010 665.898804,1021.292542 
	C667.911987,1050.466064 646.595703,1076.558228 617.758972,1081.259888 
	C589.190918,1085.917725 556.522339,1066.596802 552.260864,1030.447510 
M612.467651,1032.170532 
	C607.302063,1032.180054 602.128723,1032.042358 596.976807,1032.312744 
	C595.835266,1032.372681 594.769470,1033.874390 593.668823,1034.712280 
	C594.666260,1035.613403 595.645691,1037.272095 596.663818,1037.296265 
	C605.150696,1037.497070 613.646240,1037.470337 622.134094,1037.282349 
	C623.062561,1037.261963 623.958923,1035.790894 624.870178,1034.992798 
	C623.896484,1034.065308 623.014221,1032.490112 621.931152,1032.337158 
	C619.152222,1031.944702 616.284119,1032.184082 612.467651,1032.170532 
M594.023987,1023.280334 
	C595.301331,1023.831238 596.569702,1024.833374 597.857483,1024.858887 
	C605.470032,1025.009766 613.091003,1025.058105 620.699158,1024.822144 
	C622.107544,1024.778442 623.470825,1023.279785 624.854919,1022.452759 
	C623.490540,1021.632935 622.146545,1020.146484 620.758484,1020.104004 
	C613.150024,1019.871460 605.527222,1019.874451 597.918457,1020.101746 
	C596.543091,1020.142883 595.210083,1021.604736 594.023987,1023.280334 
z"/>
<path fill="#BEADC5" opacity="1.000000" stroke="none" 
	d="
M198.432846,707.490906 
	C220.228790,722.633911 229.070206,748.309570 221.101257,772.709412 
	C213.235168,796.794312 190.759796,812.554626 165.123535,811.962524 
	C136.300446,811.296753 111.860878,787.681152 110.104401,758.798340 
	C108.320351,729.462280 128.969391,703.498291 157.580994,698.854126 
	C172.235764,696.475403 185.650665,699.513184 198.432846,707.490906 
M178.169327,761.002869 
	C176.916397,760.889954 175.663483,760.776978 174.161301,760.641541 
	C174.161301,753.465942 174.270035,746.672974 174.071808,739.888977 
	C174.030945,738.491028 173.017990,736.120239 172.148575,735.971008 
	C170.659760,735.715332 168.253250,736.358887 167.412689,737.496887 
	C162.089584,744.703674 156.925705,752.043030 152.053726,759.561768 
	C149.585037,763.371582 150.911194,765.364563 155.487564,765.470764 
	C159.740341,765.569458 163.997208,765.491821 167.162964,765.491821 
	C168.801056,768.932556 169.973465,771.395142 171.145828,773.857727 
	C172.603088,771.333984 174.060333,768.810303 175.854858,765.702515 
	C180.457657,764.902832 180.457657,764.902832 178.169327,761.002869 
z"/>
<path fill="#BDACC5" opacity="1.000000" stroke="none" 
	d="
M454.743164,968.059814 
	C484.602814,970.605652 506.665649,992.200012 508.863708,1020.600098 
	C511.029968,1048.589600 492.492554,1073.827271 464.876953,1080.486084 
	C434.090637,1087.909424 402.363800,1067.610962 396.166595,1036.525879 
	C389.839111,1004.787415 410.920013,973.883606 442.359833,968.957458 
	C446.286865,968.342163 450.308960,968.333984 454.743164,968.059814 
M433.696564,1037.028809 
	C434.546692,1031.054810 436.351654,1025.026245 436.013550,1019.120300 
	C435.555389,1011.117859 430.491028,1006.454346 422.673859,1005.258301 
	C419.098389,1004.711243 415.314606,1004.683777 411.758636,1005.253174 
	C410.274719,1005.490723 408.063354,1007.861206 408.016083,1009.321228 
	C407.687805,1019.455017 407.736969,1029.606689 407.961334,1039.746094 
	C407.992889,1041.171875 409.341309,1043.383179 410.585938,1043.833740 
	C417.953583,1046.500732 428.258881,1043.509033 433.696564,1037.028809 
M460.116425,1018.212585 
	C454.038147,1014.884094 447.922943,1015.300720 444.063507,1019.306335 
	C440.226410,1023.288635 439.415710,1033.309814 442.499969,1038.634888 
	C445.325165,1043.512817 451.655182,1045.693604 458.865784,1043.938721 
	C460.229736,1043.606689 461.301208,1042.073120 462.507660,1041.093872 
	C447.608124,1039.600586 446.903473,1039.240967 446.301331,1031.846802 
	C449.624084,1031.846802 452.912506,1031.847412 456.200958,1031.846680 
	C464.511505,1031.844727 466.222900,1029.150146 462.637421,1021.604553 
	C462.146637,1020.571777 461.342834,1019.687683 460.116425,1018.212585 
M472.073608,1032.450684 
	C472.074799,1034.777344 471.726044,1037.177490 472.193939,1039.406128 
	C472.534393,1041.027954 473.953339,1042.423462 474.891479,1043.919800 
	C475.852356,1042.439209 477.608917,1040.977905 477.645660,1039.474731 
	C477.893097,1029.343262 477.911011,1019.198975 477.638245,1009.068726 
	C477.594940,1007.461548 475.710724,1005.903870 474.677612,1004.323303 
	C473.809998,1005.891541 472.250061,1007.435059 472.193024,1009.032288 
	C471.926392,1016.501343 472.074005,1023.985291 472.073608,1032.450684 
M488.625916,1041.864258 
	C491.673340,1044.607788 494.152802,1044.492310 494.744934,1041.401123 
	C495.013702,1039.998047 494.434052,1038.214111 493.682465,1036.928345 
	C493.317352,1036.303589 490.989655,1035.934570 490.725708,1036.299561 
	C489.692139,1037.729126 489.127045,1039.497437 488.625916,1041.864258 
z"/>
<path fill="#BEADC6" opacity="1.000000" stroke="none" 
	d="
M505.273560,775.081482 
	C494.208893,802.143616 467.155243,816.746338 439.830719,810.690674 
	C412.712738,804.680847 394.088440,780.441528 395.056396,752.417480 
	C396.042847,723.857422 419.767181,699.695984 448.395325,698.095703 
	C477.611359,696.462585 503.474579,716.984375 508.117645,745.263672 
	C509.778229,755.377686 508.866211,765.133362 505.273560,775.081482 
M444.857849,749.853760 
	C444.857849,749.853760 444.587738,749.581299 444.469116,748.837708 
	C446.711212,740.982666 449.141602,739.432068 457.947815,739.809326 
	C459.109985,739.859131 460.317993,738.839111 461.504791,738.314575 
	C460.599152,737.267029 459.890198,735.666382 458.755524,735.262817 
	C452.138702,732.909607 442.911743,736.397217 440.882355,743.240234 
	C439.002777,749.578247 438.312256,756.643860 438.876190,763.237000 
	C439.584625,771.518982 445.312225,774.991882 453.740753,774.270996 
	C459.050079,773.816833 463.038971,771.451477 464.866089,766.402954 
	C466.797150,761.067139 466.568604,755.694214 462.306396,751.505371 
	C458.405365,747.671570 453.495850,747.141418 448.357697,748.922424 
	C447.270447,749.299316 446.200745,749.726868 444.857849,749.853760 
z"/>
<path fill="#BEADC6" opacity="1.000000" stroke="none" 
	d="
M133.780762,1071.287598 
	C114.449448,1056.120605 106.374657,1036.571655 111.489830,1012.925537 
	C116.413101,990.166626 131.053864,975.523560 153.722763,969.711426 
	C184.636566,961.785400 216.571747,982.176086 222.828583,1013.458862 
	C229.208557,1045.357300 208.047180,1076.045654 176.247925,1081.158081 
	C160.845413,1083.634521 146.879730,1080.183105 133.780762,1071.287598 
M179.960251,1015.708313 
	C177.300522,1007.302063 173.225937,1004.370667 165.009964,1004.952393 
	C158.425644,1005.418579 153.988113,1009.687012 153.173340,1017.548523 
	C152.630966,1022.781738 152.658417,1028.231567 153.494995,1033.412720 
	C154.700745,1040.880249 159.548676,1044.476318 166.705032,1044.460327 
	C173.896469,1044.444214 178.781876,1040.828979 179.863373,1033.379883 
	C180.663818,1027.866577 180.084183,1022.153015 179.960251,1015.708313 
z"/>
<path fill="#BEADC6" opacity="1.000000" stroke="none" 
	d="
M166.081329,833.024719 
	C196.699890,833.377258 220.306778,854.590881 223.763000,884.443970 
	C226.971176,912.154480 208.000763,938.611023 180.030960,945.433533 
	C149.242111,952.943665 117.581673,932.822205 111.197510,901.687195 
	C104.673973,869.872498 125.893997,838.904846 157.686920,833.889282 
	C160.311783,833.475281 162.975586,833.307922 166.081329,833.024719 
M166.522919,870.970215 
	C157.339294,876.468628 155.634552,878.633850 157.190247,883.573730 
	C160.224304,881.302979 163.131271,879.127319 166.718201,876.442749 
	C166.718201,886.522217 166.592072,895.464233 166.839401,904.395996 
	C166.881790,905.927307 168.516891,907.414490 169.416275,908.922058 
	C170.329788,907.385925 171.995590,905.868408 172.034180,904.310608 
	C172.276855,894.515442 172.114853,884.710938 172.180832,874.910217 
	C172.204559,871.384399 170.711975,869.984741 166.522919,870.970215 
z"/>
<path fill="#BEADC6" opacity="1.000000" stroke="none" 
	d="
M252.226410,895.450562 
	C250.590515,859.301575 276.720245,831.962524 311.391785,833.050293 
	C340.007935,833.948120 364.222900,857.601746 365.899109,886.294128 
	C367.604614,915.487549 346.985443,941.212280 318.757660,946.165405 
	C289.313690,951.331909 256.520020,931.651917 252.226410,895.450562 
M307.186462,895.682678 
	C304.427887,898.094360 301.514526,900.357605 298.988007,902.991821 
	C297.997040,904.024963 297.378815,905.953857 297.560760,907.348328 
	C297.652710,908.053040 299.891968,908.906738 301.185394,908.950439 
	C306.511597,909.130371 311.853821,909.166687 317.175201,908.926025 
	C318.500244,908.866089 319.769562,907.573914 321.064514,906.848206 
	C319.758789,905.949280 318.517365,904.414917 317.134796,904.275085 
	C313.515961,903.908752 309.835449,904.151489 305.056305,904.151489 
	C307.979523,901.443481 310.085876,899.959290 311.583984,898.008057 
	C314.784149,893.839844 318.565399,889.788391 320.469055,885.032776 
	C323.180359,878.259521 320.132019,872.002136 313.847321,870.744080 
	C309.636780,869.901123 305.003632,870.696899 300.649567,871.354797 
	C299.467621,871.533447 298.612396,873.873779 297.607208,875.221985 
	C297.972565,875.602295 298.337921,875.982605 298.703278,876.362915 
	C301.069397,875.870361 303.416779,875.243896 305.805054,874.909668 
	C313.894379,873.777649 317.779144,878.545288 314.403931,885.986389 
	C312.869263,889.369812 309.975952,892.136963 307.186462,895.682678 
z"/>
<path fill="#808080" opacity="1.000000" stroke="none" 
	d="
M633.991760,568.882446 
	C655.772766,580.321533 668.549377,603.161194 665.771240,625.238403 
	C662.551086,650.827393 645.997559,669.680908 621.674561,675.461914 
	C590.828979,682.793274 559.289368,662.458130 553.163025,631.289307 
	C546.887634,599.362488 568.373047,568.631042 600.117188,563.800354 
	C611.884094,562.009644 622.960205,563.764526 633.991760,568.882446 
M617.912537,617.518250 
	C618.435547,615.527588 618.958496,613.536926 619.481506,611.546326 
	C617.355713,612.664246 614.954651,613.465027 613.189087,614.997864 
	C611.713928,616.278625 610.982666,618.416260 609.956360,620.117310 
	C607.393677,616.999207 605.353577,614.222473 602.951660,611.805298 
	C602.365173,611.215027 600.592712,611.803162 599.365540,611.849426 
	C599.440918,612.924805 599.199646,614.164551 599.655334,615.042603 
	C600.723328,617.100464 601.962708,619.118103 603.429504,620.908997 
	C605.695923,623.676331 605.563171,626.139648 603.485229,628.967407 
	C601.475708,631.702026 599.837463,634.709473 597.544250,638.385681 
	C605.809143,640.308655 605.994446,632.710938 609.501465,629.954163 
	C613.061890,633.137451 613.181213,640.452637 620.982178,638.493103 
	C619.183289,631.482971 609.318420,626.131226 617.912537,617.518250 
z"/>
<path fill="#BEADC6" opacity="1.000000" stroke="none" 
	d="
M398.143066,638.609863 
	C388.084320,606.550598 405.222290,573.940979 436.429199,565.171143 
	C467.671204,556.391418 499.455292,574.992676 507.336029,606.668640 
	C514.342834,634.831970 498.354248,664.212219 470.802155,673.802429 
	C442.778809,683.556641 412.054749,670.257446 399.973358,643.136353 
	C399.364990,641.770752 398.823578,640.375244 398.143066,638.609863 
M459.895538,635.436890 
	C466.619629,626.655579 466.708679,616.857727 463.460632,606.998535 
	C461.462097,600.932190 454.059601,598.399048 446.980347,600.370789 
	C440.034332,602.305359 436.535950,608.188354 437.760559,615.874695 
	C438.828064,622.575012 443.193420,626.271484 450.321838,625.982117 
	C453.163696,625.866821 455.969238,624.856934 458.775208,624.257751 
	C458.691437,632.079895 454.002319,635.768127 445.679260,634.768677 
	C444.314453,634.604797 442.807495,635.625061 441.366211,636.098022 
	C442.656342,637.098999 443.836914,638.743164 445.256287,638.984863 
	C450.271729,639.838745 455.232605,639.601868 459.895538,635.436890 
z"/>
<path fill="#BEADC6" opacity="1.000000" stroke="none" 
	d="
M269.731323,578.722656 
	C303.842010,549.054871 353.942596,564.145752 364.416077,606.915466 
	C371.991699,637.851562 351.521179,669.864136 320.324951,675.866821 
	C288.448151,682.000427 257.874329,660.997253 252.904633,629.520020 
	C249.799774,609.854309 255.592804,593.081421 269.731323,578.722656 
M322.001404,609.476501 
	C321.147339,603.778381 318.383179,600.955322 312.776306,600.054749 
	C305.722870,598.921814 299.451752,601.067810 297.267120,605.465332 
	C295.410370,609.202820 296.331299,612.616577 298.887634,615.647034 
	C299.809235,616.739502 301.053497,617.559814 302.297119,618.630554 
	C301.311676,619.281372 300.460022,619.791748 299.664581,620.378357 
	C296.335175,622.833679 294.478973,625.998169 295.185150,630.260864 
	C295.921478,634.705688 298.782623,637.777588 302.929138,638.421448 
	C307.227203,639.088806 311.832184,638.916931 316.126648,638.138916 
	C320.148773,637.410156 322.645386,634.258362 323.204132,630.021362 
	C323.774506,625.696228 322.421570,622.146545 318.671753,619.671387 
	C317.921875,619.176392 317.218353,618.611145 317.193970,618.593262 
	C318.966827,615.515869 320.476654,612.895142 322.001404,609.476501 
z"/>
<path fill="#BEADC6" opacity="1.000000" stroke="none" 
	d="
M179.334381,564.355957 
	C206.538239,571.336060 224.174667,593.740479 223.975342,620.665955 
	C223.782394,646.732422 205.676361,669.247498 179.897949,675.476807 
	C149.155609,682.905640 117.533203,662.736633 111.191696,631.655457 
	C104.705597,599.865540 125.877663,568.695557 157.632782,564.048828 
	C164.573532,563.033264 171.822083,564.121155 179.334381,564.355957 
M168.112198,628.752319 
	C171.581497,621.375549 175.079758,614.012146 178.509354,606.616943 
	C180.598541,602.112061 179.623199,600.540710 174.741547,600.498108 
	C169.242905,600.450073 163.737350,600.348633 158.249100,600.592590 
	C156.968185,600.649536 155.745041,602.006226 154.495331,602.764893 
	C155.752228,603.516174 156.980133,604.851562 158.271103,604.915649 
	C163.342438,605.167419 168.433655,605.018738 173.305420,605.018738 
	C168.903961,615.112549 164.592575,624.796936 160.533951,634.586243 
	C160.071564,635.701416 161.026993,637.404480 161.325027,638.834961 
	C162.667572,638.070862 164.549042,637.627258 165.235321,636.472961 
	C166.487610,634.366760 167.031891,631.839600 168.112198,628.752319 
z"/>
<path fill="#FEA401" opacity="1.000000" stroke="none" 
	d="
M484.018402,437.907654 
	C505.826111,453.720856 514.265503,479.593842 505.777344,503.880859 
	C497.529144,527.481262 474.793518,542.833252 449.405975,541.944763 
	C420.828857,540.944763 396.706757,517.242859 395.092957,488.577911 
	C393.450775,459.409119 414.041687,433.483032 442.306976,428.891296 
	C457.311066,426.453827 471.042145,429.469696 484.018402,437.907654 
M447.613312,484.117828 
	C445.199768,489.282562 442.707611,494.413086 440.433411,499.638458 
	C439.927002,500.801971 440.187531,502.299316 440.094940,503.642944 
	C441.762329,503.318939 444.088623,503.564575 444.962158,502.554199 
	C446.878174,500.338165 447.942780,497.410370 449.574097,494.916504 
	C450.976105,492.773254 452.682159,490.828918 453.869049,489.773621 
	C452.361298,496.909119 453.794434,501.716980 458.202026,503.764954 
	C462.372314,505.702606 466.554260,505.404816 469.734955,502.068329 
	C473.311523,498.316498 473.239624,493.547363 471.486053,488.953156 
	C469.902130,484.803314 466.349304,483.473511 462.196838,483.790222 
	C460.107941,483.949524 458.055969,484.592621 455.462158,484.393066 
	C457.871857,479.702850 460.404541,475.069427 462.614349,470.286865 
	C463.254700,468.900940 462.969574,467.087433 463.108734,465.469910 
	C461.273407,466.147125 458.749573,466.297119 457.744324,467.609955 
	C455.566437,470.454071 454.293549,473.972778 452.382324,477.048889 
	C451.650055,478.227417 450.185516,478.950989 449.308411,479.123352 
	C449.556458,478.351593 449.951111,477.594452 450.029755,476.805817 
	C450.773102,469.350189 447.479462,464.896362 441.082184,464.624695 
	C434.291962,464.336365 430.679535,468.545715 431.069000,476.292450 
	C431.489471,484.654846 438.328125,487.854767 447.613312,484.117828 
z"/>
<path fill="#FEA401" opacity="1.000000" stroke="none" 
	d="
M342.218262,531.289062 
	C322.235687,544.455933 301.635529,546.014893 281.097107,534.490479 
	C261.102295,523.271118 251.533173,505.270325 252.124954,482.367950 
	C252.863495,453.786011 276.811981,429.674103 305.462311,428.091064 
	C334.668274,426.477356 360.700623,447.017242 365.052246,475.357727 
	C368.578491,498.322632 360.661957,516.810364 342.218262,531.289062 
M275.781342,486.057648 
	C273.954620,486.957458 272.127930,487.857269 270.301208,488.757111 
	C272.077911,489.509705 273.796234,490.627594 275.645966,490.923248 
	C278.008514,491.300873 280.477142,491.014862 283.127014,491.014862 
	C283.127014,494.717163 282.857910,497.737823 283.256439,500.667694 
	C283.421082,501.878174 285.017822,502.893860 285.963196,503.998169 
	C286.897797,502.888031 288.485229,501.860779 288.638794,500.651459 
	C289.025970,497.602692 288.766998,494.471893 288.766998,491.012970 
	C292.206604,491.012970 295.032776,491.249756 297.788422,490.911530 
	C299.135162,490.746246 300.350555,489.510590 301.625397,488.759430 
	C300.288483,487.859772 299.037201,486.401459 297.596252,486.180695 
	C294.878357,485.764282 292.051239,486.060455 288.769348,486.060455 
	C288.769348,482.597870 289.031067,479.612701 288.650085,476.711945 
	C288.479980,475.416962 287.018097,474.291626 286.142456,473.089294 
	C285.136444,474.328094 283.473022,475.464447 283.260651,476.826965 
	C282.812683,479.700531 283.124390,482.692535 283.124390,486.057495 
	C280.612701,486.057495 278.651794,486.057495 275.781342,486.057648 
M309.086670,498.580383 
	C308.744019,499.338593 308.157776,500.081390 308.108612,500.858154 
	C308.000885,502.561462 308.165222,504.281952 308.218445,505.995422 
	C309.936279,505.033630 312.537384,504.494354 313.231689,503.042938 
	C318.615021,491.789795 323.670837,480.378387 328.683289,468.952484 
	C329.089386,468.026825 328.769287,465.911896 328.165527,465.615753 
	C327.233398,465.158600 325.421844,465.384491 324.604370,466.065857 
	C323.405396,467.065186 322.574036,468.639648 321.899933,470.112732 
	C317.676880,479.340851 313.541077,488.608856 309.086670,498.580383 
M345.045532,490.996826 
	C346.041504,490.178131 347.037476,489.359436 348.033417,488.540741 
	C346.972107,487.722015 345.962433,486.292145 344.839996,486.197327 
	C341.244598,485.893494 337.591736,485.895294 333.995667,486.194733 
	C332.864258,486.288971 331.842010,487.693970 330.769775,488.499023 
	C331.932556,489.332642 333.033813,490.756409 334.270111,490.885345 
	C337.526703,491.225006 340.841980,491.002136 345.045532,490.996826 
z"/>
<path fill="#FEA401" opacity="1.000000" stroke="none" 
	d="
M222.176895,471.064758 
	C227.368149,495.263397 220.681824,515.311646 201.507858,530.067200 
	C182.655807,544.575134 161.557266,546.332947 140.481064,535.196960 
	C119.188637,523.946655 109.179329,505.310425 110.195564,481.362305 
	C111.367363,453.748474 133.325531,431.434875 161.566406,428.225983 
	C188.704330,425.142456 214.303925,443.091949 222.176895,471.064758 
M159.855011,499.608490 
	C160.584579,502.520294 162.277283,504.946289 165.403564,503.816040 
	C169.091965,502.482544 166.584427,499.572784 165.900604,497.486694 
	C162.949219,488.482819 159.813736,479.539276 156.738968,470.575928 
	C155.807205,467.859650 154.798874,464.458710 151.313766,465.324402 
	C149.287994,465.827576 147.059830,468.325653 146.251389,470.435272 
	C142.684586,479.742828 139.503891,489.204132 136.440460,498.692780 
	C135.952103,500.205414 136.276184,503.328339 137.081650,503.666656 
	C139.884796,504.844208 142.162506,503.103119 142.481094,500.268555 
	C143.155823,494.265228 146.699081,493.252533 151.782959,493.959259 
	C153.732574,494.230255 155.751404,494.003357 157.909760,494.003357 
	C158.515030,495.738098 159.057144,497.291870 159.855011,499.608490 
M175.612152,491.326660 
	C175.360107,487.875000 174.642578,484.381104 174.951294,480.980347 
	C175.629425,473.510254 180.053650,470.163544 187.617493,469.779968 
	C190.104736,469.653870 194.825516,472.578857 194.958679,468.039978 
	C195.095871,463.364349 189.832779,464.872131 186.935257,464.706268 
	C177.551056,464.168976 171.375229,468.669342 168.924881,477.112732 
	C165.994751,487.209381 168.978256,497.859497 176.195770,502.160431 
	C181.286621,505.194122 186.889847,505.741577 192.530304,504.028900 
	C193.762253,503.654816 194.588791,501.945557 195.602051,500.851196 
	C194.259384,500.253235 192.955383,499.524872 191.558289,499.110413 
	C190.820145,498.891418 189.919891,499.219543 189.092743,499.299866 
	C182.218430,499.967438 179.162491,498.303680 175.612152,491.326660 
z"/>
<path fill="#F5F5F5" opacity="1.000000" stroke="none" 
	d="
M612.075806,897.300537 
	C611.981506,900.089661 612.313782,902.493530 611.837158,904.724609 
	C611.508057,906.265564 610.060852,907.567627 609.113281,908.976440 
	C608.168396,907.506653 606.685547,906.133179 606.401245,904.545166 
	C605.944031,901.991455 606.278503,899.295959 606.278503,896.011780 
	C602.929016,896.011780 599.963501,896.223511 597.055542,895.906494 
	C595.908752,895.781494 594.890503,894.477539 593.813721,893.710449 
	C594.827698,892.833252 595.765564,891.334900 596.870544,891.199402 
	C599.778809,890.842834 602.759644,891.078857 606.315308,891.078857 
	C606.315308,887.564514 605.981995,884.563538 606.462585,881.699036 
	C606.686829,880.362488 608.487000,879.290405 609.572815,878.098389 
	C610.366516,879.360535 611.673584,880.556458 611.846802,881.898682 
	C612.203308,884.662415 611.953979,887.504395 611.953979,891.066284 
	C615.343872,891.066284 618.458008,890.853027 621.516052,891.174438 
	C622.690063,891.297852 623.735901,892.640442 624.840088,893.427490 
	C623.684509,894.289429 622.629150,895.659851 621.353149,895.911621 
	C618.343872,896.505188 615.229370,896.565491 612.075806,897.300537 
z"/>
<path fill="#F7F7F7" opacity="1.000000" stroke="none" 
	d="
M609.921387,756.059204 
	C612.933777,756.739319 616.875732,754.227966 617.425049,758.871155 
	C617.476135,759.302185 612.899536,760.543213 610.397583,760.936218 
	C608.129822,761.292480 605.716675,761.267761 603.454529,760.890564 
	C602.293396,760.697021 601.321899,759.366394 600.264648,758.549683 
	C601.337036,757.725525 602.311035,756.435974 603.504272,756.183594 
	C605.412537,755.780090 607.466431,756.065186 609.921387,756.059204 
z"/>
<path fill="#F8F8F8" opacity="1.000000" stroke="none" 
	d="
M604.069824,486.064270 
	C609.887390,486.065186 615.223145,485.897186 620.535278,486.176605 
	C622.004333,486.253906 623.403320,487.662598 624.834412,488.460419 
	C623.496765,489.309235 622.180725,490.849884 620.818054,490.892273 
	C613.168091,491.130219 605.503174,491.128510 597.853027,490.894501 
	C596.488708,490.852783 595.169556,489.337006 593.829529,488.501862 
	C595.248291,487.690033 596.582703,486.520874 598.108093,486.160828 
	C599.842773,485.751404 601.747986,486.064941 604.069824,486.064270 
z"/>
<path fill="#F7F7F7" opacity="1.000000" stroke="none" 
	d="
M609.015015,504.000671 
	C605.101868,503.123291 605.540894,500.377563 606.246582,498.074921 
	C606.537537,497.125641 608.640503,495.956940 609.613525,496.186127 
	C610.851135,496.477722 612.400574,497.931763 612.707336,499.161163 
	C613.311035,501.580750 612.627991,503.826111 609.015015,504.000671 
z"/>
<path fill="#F7F7F7" opacity="1.000000" stroke="none" 
	d="
M612.869934,477.136108 
	C611.480469,478.742432 610.086243,479.950623 608.692017,481.158844 
	C607.753906,479.849670 606.087402,478.545288 606.078735,477.229950 
	C606.069641,475.861908 607.662292,474.483276 608.554565,473.109253 
	C609.991394,474.318848 611.428284,475.528412 612.869934,477.136108 
z"/>
<path fill="#161417" opacity="1.000000" stroke="none" 
	d="
M309.815460,1043.954590 
	C308.257111,1043.089355 306.401367,1042.345703 306.064453,1041.167603 
	C305.698120,1039.886719 306.404083,1037.932983 307.304626,1036.797974 
	C307.816376,1036.152832 310.228790,1036.026123 310.768280,1036.608276 
	C311.750732,1037.668701 312.399323,1039.438599 312.371460,1040.896973 
	C312.352142,1041.906494 310.963776,1042.889893 309.815460,1043.954590 
z"/>
<path fill="#0B0A0B" opacity="1.000000" stroke="none" 
	d="
M308.208374,749.257385 
	C317.154877,749.187134 321.301605,752.628418 321.772644,760.069336 
	C322.296875,768.350708 318.091217,773.506470 309.838593,774.103577 
	C306.599792,774.337830 303.244843,773.891968 300.050323,773.233887 
	C299.125305,773.043274 298.573425,771.041382 297.850494,769.869873 
	C299.066711,769.546631 300.296387,768.915283 301.496155,768.967834 
	C303.627869,769.061157 305.981506,770.315247 307.806549,769.728516 
	C310.561707,768.842712 314.186584,767.332336 315.155548,765.096619 
	C316.267670,762.530396 315.984802,757.888123 314.269348,755.992249 
	C312.634735,754.185730 308.133179,753.773804 305.316162,754.468506 
	C297.783112,756.326477 297.869171,756.692993 298.264771,748.871521 
	C298.357056,747.047180 298.485291,745.224670 298.605347,743.401855 
	C299.127228,735.476501 299.128357,735.475464 307.316589,735.474792 
	C310.474701,735.474548 313.651886,735.283386 316.780945,735.586426 
	C317.939880,735.698669 318.985809,736.978333 320.083282,737.725586 
	C319.003082,738.490417 317.960968,739.841797 316.835846,739.914917 
	C312.736755,740.181030 308.609955,740.020020 304.133820,740.020020 
	C303.953125,743.542603 303.795898,746.607849 303.614197,750.149963 
	C305.324860,749.818420 306.550507,749.580933 308.208374,749.257385 
z"/>
<path fill="#0A090A" opacity="1.000000" stroke="none" 
	d="
M450.677368,904.898438 
	C453.319824,903.157166 456.572693,901.899902 457.590179,899.637390 
	C459.931213,894.431702 456.844299,891.220764 449.696198,890.237793 
	C448.052948,890.011780 446.489044,889.208557 444.888641,888.670959 
	C445.688141,886.956177 446.162476,884.958740 447.355652,883.586243 
	C449.744751,880.838257 452.528961,878.434021 455.135651,875.873230 
	C455.194550,875.815308 455.082825,875.583618 454.962097,875.018066 
	C451.135284,875.018066 447.196198,875.172180 443.282440,874.924683 
	C442.098999,874.849854 440.985901,873.662170 439.840576,872.984192 
	C440.999664,872.153381 442.126099,870.664490 443.323456,870.605164 
	C448.630341,870.341858 453.961060,870.384338 459.274780,870.564331 
	C460.540039,870.607239 462.513733,871.342285 462.831757,872.233521 
	C463.223175,873.330444 462.625732,875.306519 461.748627,876.233582 
	C458.813995,879.335205 455.564117,882.138550 452.124573,885.345459 
	C461.891815,888.768005 463.746765,890.749207 463.721405,897.053833 
	C463.694122,903.831360 459.781189,908.462402 452.959778,909.042969 
	C449.557373,909.332581 446.019012,908.943665 442.659271,908.274109 
	C441.611420,908.065247 440.947021,905.932434 440.107056,904.680420 
	C441.372375,904.421265 442.653290,903.891541 443.899567,903.963196 
	C446.035278,904.085999 448.149384,904.584900 450.677368,904.898438 
z"/>
<path fill="#F5F5F5" opacity="1.000000" stroke="none" 
	d="
M612.959656,1032.170654 
	C616.284119,1032.184082 619.152222,1031.944702 621.931152,1032.337158 
	C623.014221,1032.490112 623.896484,1034.065308 624.870178,1034.992798 
	C623.958923,1035.790894 623.062561,1037.261963 622.134094,1037.282349 
	C613.646240,1037.470337 605.150696,1037.497070 596.663818,1037.296265 
	C595.645691,1037.272095 594.666260,1035.613403 593.668823,1034.712158 
	C594.769470,1033.874390 595.835266,1032.372681 596.976807,1032.312744 
	C602.128723,1032.042358 607.302063,1032.180054 612.959656,1032.170654 
z"/>
<path fill="#F8F8F8" opacity="1.000000" stroke="none" 
	d="
M593.940796,1022.845520 
	C595.210083,1021.604736 596.543091,1020.142883 597.918457,1020.101746 
	C605.527222,1019.874451 613.150024,1019.871460 620.758484,1020.104004 
	C622.146545,1020.146484 623.490540,1021.632935 624.854858,1022.452759 
	C623.470825,1023.279785 622.107544,1024.778442 620.699158,1024.822144 
	C613.091003,1025.058105 605.470032,1025.009766 597.857483,1024.858887 
	C596.569702,1024.833374 595.301331,1023.831238 593.940796,1022.845520 
z"/>
<path fill="#060506" opacity="1.000000" stroke="none" 
	d="
M178.579895,761.120728 
	C180.457657,764.902832 180.457657,764.902832 175.854858,765.702515 
	C174.060333,768.810303 172.603088,771.333984 171.145844,773.857727 
	C169.973465,771.395142 168.801056,768.932556 167.162964,765.491821 
	C163.997208,765.491821 159.740341,765.569458 155.487564,765.470764 
	C150.911194,765.364563 149.585037,763.371582 152.053726,759.561768 
	C156.925705,752.043030 162.089584,744.703674 167.412689,737.496887 
	C168.253250,736.358887 170.659760,735.715332 172.148575,735.971008 
	C173.017990,736.120239 174.030945,738.491028 174.071808,739.888977 
	C174.270035,746.672974 174.161301,753.465942 174.161301,760.641541 
	C175.663483,760.776978 176.916397,760.889954 178.579895,761.120728 
M157.835861,758.672363 
	C158.232452,759.443237 158.588715,760.854248 159.032104,760.882141 
	C162.123093,761.076904 165.232147,760.985046 168.534637,760.985046 
	C168.534637,755.229919 168.534637,750.033997 168.534637,743.367065 
	C164.598404,748.978394 161.424667,753.502747 157.835861,758.672363 
z"/>
<path fill="#080708" opacity="1.000000" stroke="none" 
	d="
M433.486237,1037.335938 
	C428.258881,1043.509033 417.953583,1046.500732 410.585938,1043.833740 
	C409.341309,1043.383179 407.992889,1041.171875 407.961334,1039.746094 
	C407.736969,1029.606689 407.687805,1019.455017 408.016083,1009.321228 
	C408.063354,1007.861206 410.274719,1005.490723 411.758636,1005.253174 
	C415.314606,1004.683777 419.098389,1004.711243 422.673859,1005.258301 
	C430.491028,1006.454346 435.555389,1011.117859 436.013550,1019.120300 
	C436.351654,1025.026245 434.546692,1031.054810 433.486237,1037.335938 
M413.267212,1021.529419 
	C413.268127,1026.515503 413.144653,1031.507202 413.364014,1036.483643 
	C413.414154,1037.621094 414.420471,1039.389160 415.372162,1039.704834 
	C421.655365,1041.788452 429.160736,1037.675171 430.569061,1031.197388 
	C431.296417,1027.851685 431.462463,1024.248779 431.132568,1020.834473 
	C430.227692,1011.468750 422.471649,1007.097473 413.267303,1010.692810 
	C413.267303,1013.913208 413.267303,1017.228699 413.267212,1021.529419 
z"/>
<path fill="#0B0A0C" opacity="1.000000" stroke="none" 
	d="
M460.400208,1018.473694 
	C461.342834,1019.687683 462.146637,1020.571777 462.637421,1021.604553 
	C466.222900,1029.150146 464.511505,1031.844727 456.200958,1031.846680 
	C452.912506,1031.847412 449.624084,1031.846802 446.301331,1031.846802 
	C446.903473,1039.240967 447.608124,1039.600586 462.507660,1041.093872 
	C461.301208,1042.073120 460.229736,1043.606689 458.865784,1043.938721 
	C451.655182,1045.693604 445.325165,1043.512817 442.499969,1038.634888 
	C439.415710,1033.309814 440.226410,1023.288635 444.063507,1019.306335 
	C447.922943,1015.300720 454.038147,1014.884094 460.400208,1018.473694 
M446.855499,1023.551147 
	C446.592560,1024.856689 446.329590,1026.162231 446.068329,1027.459473 
	C450.761597,1027.459473 454.769012,1027.459473 460.588745,1027.459473 
	C458.188873,1024.311768 456.924622,1021.001160 455.019806,1020.578674 
	C452.702393,1020.064697 449.845490,1021.983154 446.855499,1023.551147 
z"/>
<path fill="#161417" opacity="1.000000" stroke="none" 
	d="
M472.073608,1031.957275 
	C472.074005,1023.985291 471.926392,1016.501343 472.193024,1009.032288 
	C472.250061,1007.435059 473.809998,1005.891541 474.677643,1004.323303 
	C475.710724,1005.903870 477.594940,1007.461548 477.638245,1009.068726 
	C477.911011,1019.198975 477.893097,1029.343262 477.645660,1039.474731 
	C477.608917,1040.977905 475.852356,1042.439209 474.891479,1043.919800 
	C473.953339,1042.423462 472.534393,1041.027954 472.193939,1039.406128 
	C471.726044,1037.177490 472.074799,1034.777344 472.073608,1031.957275 
z"/>
<path fill="#0B0A0C" opacity="1.000000" stroke="none" 
	d="
M488.506897,1041.502075 
	C489.127045,1039.497437 489.692139,1037.729126 490.725708,1036.299561 
	C490.989655,1035.934570 493.317352,1036.303589 493.682465,1036.928345 
	C494.434052,1038.214111 495.013702,1039.998047 494.744934,1041.401123 
	C494.152802,1044.492310 491.673340,1044.607788 488.506897,1041.502075 
z"/>
<path fill="#0B0A0C" opacity="1.000000" stroke="none" 
	d="
M445.122925,750.131104 
	C446.200745,749.726868 447.270447,749.299316 448.357697,748.922424 
	C453.495850,747.141418 458.405365,747.671570 462.306396,751.505371 
	C466.568604,755.694214 466.797150,761.067139 464.866089,766.402954 
	C463.038971,771.451477 459.050079,773.816833 453.740753,774.270996 
	C445.312225,774.991882 439.584625,771.518982 438.876190,763.237000 
	C438.312256,756.643860 439.002777,749.578247 440.882355,743.240234 
	C442.911743,736.397217 452.138702,732.909607 458.755524,735.262817 
	C459.890198,735.666382 460.599152,737.267029 461.504791,738.314575 
	C460.317993,738.839111 459.109985,739.859131 457.947815,739.809326 
	C449.141602,739.432068 446.711212,740.982666 444.394287,749.378174 
	C444.402649,750.169434 444.485840,750.420227 444.569031,750.671021 
	C444.753693,750.491089 444.938324,750.311096 445.122925,750.131104 
M453.902679,752.480652 
	C449.173828,751.734863 445.706757,753.419434 444.105560,758.012085 
	C442.649628,762.188110 444.489929,766.966553 447.979614,768.876221 
	C452.016541,771.085388 457.209198,769.699463 459.238342,765.871338 
	C461.946045,760.763062 460.105957,755.501526 453.902679,752.480652 
z"/>
<path fill="#0B0A0B" opacity="1.000000" stroke="none" 
	d="
M180.039795,1016.118469 
	C180.084183,1022.153015 180.663818,1027.866577 179.863373,1033.379883 
	C178.781876,1040.828979 173.896469,1044.444214 166.705032,1044.460327 
	C159.548676,1044.476318 154.700745,1040.880249 153.494995,1033.412720 
	C152.658417,1028.231567 152.630966,1022.781738 153.173340,1017.548523 
	C153.988113,1009.687012 158.425644,1005.418579 165.009964,1004.952393 
	C173.225937,1004.370667 177.300522,1007.302063 180.039795,1016.118469 
M158.979507,1015.884521 
	C158.885620,1021.319031 158.293747,1026.803955 158.837219,1032.173828 
	C159.385788,1037.594360 162.491135,1040.056396 166.865829,1039.928223 
	C172.053406,1039.776489 174.281784,1036.311768 174.675568,1031.859131 
	C175.110458,1026.941650 175.061951,1021.924438 174.623169,1017.004272 
	C174.256424,1012.891663 171.887756,1009.718933 167.420319,1009.338806 
	C163.301544,1008.988403 160.493774,1011.125977 158.979507,1015.884521 
z"/>
<path fill="#050405" opacity="1.000000" stroke="none" 
	d="
M166.884476,870.885559 
	C170.711975,869.984741 172.204559,871.384399 172.180832,874.910217 
	C172.114853,884.710938 172.276855,894.515442 172.034180,904.310608 
	C171.995590,905.868408 170.329788,907.385925 169.416260,908.922058 
	C168.516891,907.414490 166.881790,905.927307 166.839401,904.395996 
	C166.592072,895.464233 166.718201,886.522217 166.718201,876.442749 
	C163.131271,879.127319 160.224304,881.302979 157.190247,883.573730 
	C155.634552,878.633850 157.339294,876.468628 166.884476,870.885559 
z"/>
<path fill="#0B0A0C" opacity="1.000000" stroke="none" 
	d="
M307.442688,895.433167 
	C309.975952,892.136963 312.869263,889.369812 314.403931,885.986389 
	C317.779144,878.545288 313.894379,873.777649 305.805054,874.909668 
	C303.416779,875.243896 301.069397,875.870361 298.703278,876.362915 
	C298.337921,875.982605 297.972565,875.602295 297.607208,875.221985 
	C298.612396,873.873779 299.467621,871.533447 300.649567,871.354797 
	C305.003632,870.696899 309.636780,869.901123 313.847321,870.744080 
	C320.132019,872.002136 323.180359,878.259521 320.469055,885.032776 
	C318.565399,889.788391 314.784149,893.839844 311.583984,898.008057 
	C310.085876,899.959290 307.979523,901.443481 305.056305,904.151489 
	C309.835449,904.151489 313.515961,903.908752 317.134796,904.275085 
	C318.517365,904.414917 319.758789,905.949280 321.064514,906.848145 
	C319.769562,907.573914 318.500244,908.866089 317.175201,908.926025 
	C311.853821,909.166687 306.511597,909.130371 301.185394,908.950439 
	C299.891968,908.906738 297.652710,908.053040 297.560760,907.348328 
	C297.378815,905.953857 297.997040,904.024963 298.988007,902.991821 
	C301.514526,900.357605 304.427887,898.094360 307.442688,895.433167 
z"/>
<path fill="#F7F7F7" opacity="1.000000" stroke="none" 
	d="
M617.716919,617.824951 
	C609.318420,626.131226 619.183289,631.482971 620.982178,638.493103 
	C613.181213,640.452637 613.061890,633.137451 609.501465,629.954163 
	C605.994446,632.710938 605.809143,640.308655 597.544250,638.385681 
	C599.837463,634.709473 601.475708,631.702026 603.485229,628.967407 
	C605.563171,626.139648 605.695923,623.676331 603.429504,620.908997 
	C601.962708,619.118103 600.723328,617.100464 599.655334,615.042603 
	C599.199646,614.164551 599.440918,612.924805 599.365540,611.849487 
	C600.592712,611.803162 602.365173,611.215027 602.951660,611.805298 
	C605.353577,614.222473 607.393677,616.999207 609.956360,620.117310 
	C610.982666,618.416260 611.713928,616.278625 613.189087,614.997864 
	C614.954651,613.465027 617.355713,612.664246 619.481445,611.546326 
	C618.958496,613.536926 618.435547,615.527588 617.716919,617.824951 
z"/>
<path fill="#0A090A" opacity="1.000000" stroke="none" 
	d="
M459.627106,635.692139 
	C455.232605,639.601868 450.271729,639.838745 445.256287,638.984863 
	C443.836914,638.743164 442.656342,637.098999 441.366211,636.098022 
	C442.807495,635.625061 444.314453,634.604797 445.679260,634.768677 
	C454.002319,635.768127 458.691437,632.079895 458.775208,624.257751 
	C455.969238,624.856934 453.163696,625.866821 450.321838,625.982117 
	C443.193420,626.271484 438.828064,622.575012 437.760559,615.874695 
	C436.535950,608.188354 440.034332,602.305359 446.980347,600.370789 
	C454.059601,598.399048 461.462097,600.932190 463.460632,606.998535 
	C466.708679,616.857727 466.619629,626.655579 459.627106,635.692139 
M444.183228,618.030518 
	C447.965118,622.281189 452.613892,623.214050 456.369385,620.475769 
	C459.647156,618.085815 460.750275,612.598877 458.732117,608.723145 
	C456.824768,605.060181 452.212769,603.485718 447.941254,605.039307 
	C443.652344,606.599243 442.241425,610.831421 444.183228,618.030518 
z"/>
<path fill="#0A090B" opacity="1.000000" stroke="none" 
	d="
M321.993958,609.875488 
	C320.476654,612.895142 318.966827,615.515869 317.193970,618.593262 
	C317.218353,618.611145 317.921875,619.176392 318.671753,619.671387 
	C322.421570,622.146545 323.774506,625.696228 323.204132,630.021362 
	C322.645386,634.258362 320.148773,637.410156 316.126648,638.138916 
	C311.832184,638.916931 307.227203,639.088806 302.929138,638.421448 
	C298.782623,637.777588 295.921478,634.705688 295.185150,630.260864 
	C294.478973,625.998169 296.335175,622.833679 299.664581,620.378357 
	C300.460022,619.791748 301.311676,619.281372 302.297119,618.630554 
	C301.053497,617.559814 299.809235,616.739502 298.887634,615.647034 
	C296.331299,612.616577 295.410370,609.202820 297.267120,605.465332 
	C299.451752,601.067810 305.722870,598.921814 312.776306,600.054749 
	C318.383179,600.955322 321.147339,603.778381 321.993958,609.875488 
M316.406281,624.179382 
	C314.550537,623.150024 312.606049,621.147461 310.858643,621.306763 
	C307.812164,621.584412 304.508270,622.675110 302.066467,624.458008 
	C300.793060,625.387817 300.368958,628.731140 300.892914,630.613647 
	C302.006348,634.614014 308.437286,636.325684 313.344330,634.416687 
	C317.543976,632.782837 318.667114,629.721741 316.406281,624.179382 
M316.915558,610.307312 
	C315.718292,604.985291 310.517029,602.605408 305.176331,604.936035 
	C301.087952,606.720154 300.477081,611.175232 303.923950,614.069580 
	C308.160034,617.626648 313.012115,616.487854 316.915558,610.307312 
z"/>
<path fill="#090909" opacity="1.000000" stroke="none" 
	d="
M167.991852,629.120178 
	C167.031891,631.839600 166.487610,634.366760 165.235321,636.472961 
	C164.549042,637.627258 162.667572,638.070862 161.325027,638.834961 
	C161.026993,637.404480 160.071564,635.701416 160.533951,634.586243 
	C164.592575,624.796936 168.903961,615.112549 173.305420,605.018738 
	C168.433655,605.018738 163.342438,605.167419 158.271103,604.915649 
	C156.980133,604.851562 155.752228,603.516174 154.495331,602.764893 
	C155.745041,602.006226 156.968185,600.649536 158.249100,600.592590 
	C163.737350,600.348633 169.242905,600.450073 174.741547,600.498108 
	C179.623199,600.540710 180.598541,602.112061 178.509354,606.616943 
	C175.079758,614.012146 171.581497,621.375549 167.991852,629.120178 
z"/>
<path fill="#FFFAF0" opacity="1.000000" stroke="none" 
	d="
M455.987305,485.016907 
	C458.055969,484.592621 460.107941,483.949524 462.196838,483.790222 
	C466.349304,483.473511 469.902130,484.803314 471.486053,488.953156 
	C473.239624,493.547363 473.311523,498.316498 469.734955,502.068329 
	C466.554260,505.404816 462.372314,505.702606 458.202026,503.764954 
	C453.794434,501.716980 452.361298,496.909119 454.032898,489.157593 
	C454.455963,487.880310 454.715179,487.219025 455.308380,486.407776 
	C455.773804,485.827637 455.905243,485.397430 456.016113,484.971802 
	C455.995575,484.976379 455.987305,485.016937 455.987305,485.016907 
M466.158234,494.480133 
	C466.015137,491.718903 466.360870,488.057526 462.314941,488.749329 
	C461.085083,488.959656 459.897278,492.938751 459.833710,495.223511 
	C459.790466,496.777588 461.737152,498.386993 462.794006,499.971649 
	C463.912384,498.421722 465.030762,496.871765 466.158234,494.480133 
z"/>
<path fill="#FFF8EC" opacity="1.000000" stroke="none" 
	d="
M454.974396,486.557739 
	C454.715179,487.219025 454.455963,487.880310 454.225220,488.669067 
	C452.682159,490.828918 450.976105,492.773254 449.574097,494.916504 
	C447.942780,497.410370 446.878174,500.338165 444.962158,502.554199 
	C444.088623,503.564575 441.762329,503.318939 440.094940,503.642944 
	C440.187531,502.299316 439.927002,500.801971 440.433411,499.638458 
	C442.707611,494.413086 445.199768,489.282562 447.371643,483.615967 
	C447.771545,482.036682 448.413055,480.959259 449.054626,479.881866 
	C450.185516,478.950989 451.650055,478.227417 452.382324,477.048889 
	C454.293549,473.972778 455.566437,470.454071 457.744324,467.609955 
	C458.749573,466.297119 461.273407,466.147125 463.108765,465.469910 
	C462.969574,467.087433 463.254700,468.900940 462.614349,470.286865 
	C460.404541,475.069427 457.871857,479.702850 455.724731,484.705017 
	C455.987305,485.016937 455.995575,484.976379 455.597443,484.988525 
	C455.124329,485.519684 455.049377,486.038727 454.974396,486.557739 
z"/>
<path fill="#FFFAF0" opacity="1.000000" stroke="none" 
	d="
M449.181519,479.502594 
	C448.413055,480.959259 447.771545,482.036682 447.064423,483.430176 
	C438.328125,487.854767 431.489471,484.654846 431.069000,476.292450 
	C430.679535,468.545715 434.291962,464.336365 441.082184,464.624695 
	C447.479462,464.896362 450.773102,469.350189 450.029755,476.805817 
	C449.951111,477.594452 449.556458,478.351593 449.181519,479.502594 
M443.689880,472.218353 
	C442.659058,469.865387 440.764771,467.336090 438.822449,470.310333 
	C437.378906,472.520721 437.984955,476.198151 438.118530,479.202576 
	C438.145538,479.810638 440.147522,480.330933 441.239044,480.891693 
	C442.155762,478.595184 443.087738,476.304504 443.968658,473.994354 
	C444.072510,473.721893 443.895782,473.342438 443.689880,472.218353 
z"/>
<path fill="#FFF8EA" opacity="1.000000" stroke="none" 
	d="
M276.236145,486.057556 
	C278.651794,486.057495 280.612701,486.057495 283.124390,486.057495 
	C283.124390,482.692535 282.812683,479.700531 283.260651,476.826965 
	C283.473022,475.464447 285.136444,474.328094 286.142456,473.089294 
	C287.018097,474.291626 288.479980,475.416962 288.650085,476.711945 
	C289.031067,479.612701 288.769348,482.597870 288.769348,486.060455 
	C292.051239,486.060455 294.878357,485.764282 297.596252,486.180695 
	C299.037201,486.401459 300.288483,487.859772 301.625397,488.759399 
	C300.350555,489.510590 299.135162,490.746246 297.788422,490.911530 
	C295.032776,491.249756 292.206604,491.012970 288.766998,491.012970 
	C288.766998,494.471893 289.025970,497.602692 288.638794,500.651459 
	C288.485229,501.860779 286.897797,502.888031 285.963196,503.998169 
	C285.017822,502.893860 283.421082,501.878174 283.256439,500.667694 
	C282.857910,497.737823 283.127014,494.717163 283.127014,491.014862 
	C280.477142,491.014862 278.008514,491.300873 275.645966,490.923248 
	C273.796234,490.627594 272.077911,489.509705 270.301208,488.757111 
	C272.127930,487.857269 273.954620,486.957458 276.236145,486.057556 
z"/>
<path fill="#FFF9ED" opacity="1.000000" stroke="none" 
	d="
M309.231506,498.222046 
	C313.541077,488.608856 317.676880,479.340851 321.899933,470.112732 
	C322.574036,468.639648 323.405396,467.065186 324.604370,466.065857 
	C325.421844,465.384491 327.233398,465.158600 328.165527,465.615753 
	C328.769287,465.911896 329.089386,468.026825 328.683289,468.952484 
	C323.670837,480.378387 318.615021,491.789795 313.231689,503.042938 
	C312.537384,504.494354 309.936279,505.033630 308.218445,505.995422 
	C308.165222,504.281952 308.000885,502.561462 308.108612,500.858154 
	C308.157776,500.081390 308.744019,499.338593 309.231506,498.222046 
z"/>
<path fill="#FFFAF0" opacity="1.000000" stroke="none" 
	d="
M344.589722,491.000061 
	C340.841980,491.002136 337.526703,491.225006 334.270111,490.885345 
	C333.033813,490.756409 331.932556,489.332642 330.769775,488.499023 
	C331.842010,487.693970 332.864258,486.288971 333.995667,486.194733 
	C337.591736,485.895294 341.244598,485.893494 344.839996,486.197327 
	C345.962433,486.292145 346.972107,487.722015 348.033417,488.540741 
	C347.037476,489.359436 346.041504,490.178131 344.589722,491.000061 
z"/>
<path fill="#FFFAF0" opacity="1.000000" stroke="none" 
	d="
M159.727142,499.227051 
	C159.057144,497.291870 158.515030,495.738098 157.909760,494.003357 
	C155.751404,494.003357 153.732574,494.230255 151.782959,493.959259 
	C146.699081,493.252533 143.155823,494.265228 142.481094,500.268555 
	C142.162506,503.103119 139.884796,504.844208 137.081650,503.666656 
	C136.276184,503.328339 135.952103,500.205414 136.440460,498.692780 
	C139.503891,489.204132 142.684586,479.742828 146.251389,470.435272 
	C147.059830,468.325653 149.287994,465.827576 151.313766,465.324402 
	C154.798874,464.458710 155.807205,467.859650 156.738968,470.575928 
	C159.813736,479.539276 162.949219,488.482819 165.900604,497.486694 
	C166.584427,499.572784 169.091965,502.482544 165.403564,503.816040 
	C162.277283,504.946289 160.584579,502.520294 159.727142,499.227051 
M155.116837,488.948364 
	C155.421082,488.314697 156.113388,487.570282 155.969101,487.064606 
	C154.622772,482.346405 153.132874,477.669159 151.272827,471.647064 
	C149.256393,478.196869 147.672684,483.341187 145.927414,489.010254 
	C149.027023,489.010254 151.625519,489.010254 155.116837,488.948364 
z"/>
<path fill="#FFFAF0" opacity="1.000000" stroke="none" 
	d="
M175.741531,491.714355 
	C179.162491,498.303680 182.218430,499.967438 189.092743,499.299866 
	C189.919891,499.219543 190.820145,498.891418 191.558289,499.110413 
	C192.955383,499.524872 194.259384,500.253235 195.602051,500.851196 
	C194.588791,501.945557 193.762253,503.654816 192.530304,504.028900 
	C186.889847,505.741577 181.286621,505.194122 176.195770,502.160431 
	C168.978256,497.859497 165.994751,487.209381 168.924881,477.112732 
	C171.375229,468.669342 177.551056,464.168976 186.935257,464.706268 
	C189.832779,464.872131 195.095871,463.364349 194.958679,468.039978 
	C194.825516,472.578857 190.104736,469.653870 187.617493,469.779968 
	C180.053650,470.163544 175.629425,473.510254 174.951294,480.980347 
	C174.642578,484.381104 175.360107,487.875000 175.741531,491.714355 
z"/>
<path fill="#AE9FB6" opacity="1.000000" stroke="none" 
	d="
M158.043396,758.349731 
	C161.424667,753.502747 164.598404,748.978394 168.534637,743.367065 
	C168.534637,750.033997 168.534637,755.229919 168.534637,760.985046 
	C165.232147,760.985046 162.123093,761.076904 159.032104,760.882141 
	C158.588715,760.854248 158.232452,759.443237 158.043396,758.349731 
z"/>
<path fill="#B7A7BF" opacity="1.000000" stroke="none" 
	d="
M413.267273,1021.036804 
	C413.267303,1017.228699 413.267303,1013.913208 413.267303,1010.692810 
	C422.471649,1007.097473 430.227692,1011.468750 431.132568,1020.834473 
	C431.462463,1024.248779 431.296417,1027.851685 430.569061,1031.197388 
	C429.160736,1037.675171 421.655365,1041.788452 415.372162,1039.704834 
	C414.420471,1039.389160 413.414154,1037.621094 413.364014,1036.483643 
	C413.144653,1031.507202 413.268127,1026.515503 413.267273,1021.036804 
z"/>
<path fill="#AE9FB6" opacity="1.000000" stroke="none" 
	d="
M447.038696,1023.200317 
	C449.845490,1021.983154 452.702393,1020.064697 455.019806,1020.578674 
	C456.924622,1021.001160 458.188873,1024.311768 460.588745,1027.459473 
	C454.769012,1027.459473 450.761597,1027.459473 446.068329,1027.459473 
	C446.329590,1026.162231 446.592560,1024.856689 447.038696,1023.200317 
z"/>
<path fill="#B8A8C0" opacity="1.000000" stroke="none" 
	d="
M454.271729,752.603027 
	C460.105957,755.501526 461.946045,760.763062 459.238342,765.871338 
	C457.209198,769.699463 452.016541,771.085388 447.979614,768.876221 
	C444.489929,766.966553 442.649628,762.188110 444.105560,758.012085 
	C445.706757,753.419434 449.173828,751.734863 454.271729,752.603027 
z"/>
<path fill="#BEADC6" opacity="1.000000" stroke="none" 
	d="
M444.990417,749.992432 
	C444.938324,750.311096 444.753693,750.491089 444.569031,750.671021 
	C444.485840,750.420227 444.402649,750.169434 444.453613,749.750000 
	C444.587738,749.581299 444.857849,749.853760 444.990417,749.992432 
z"/>
<path fill="#BAA9C1" opacity="1.000000" stroke="none" 
	d="
M159.077087,1015.489868 
	C160.493774,1011.125977 163.301544,1008.988403 167.420319,1009.338806 
	C171.887756,1009.718933 174.256424,1012.891663 174.623169,1017.004272 
	C175.061951,1021.924438 175.110458,1026.941650 174.675568,1031.859131 
	C174.281784,1036.311768 172.053406,1039.776489 166.865829,1039.928223 
	C162.491135,1040.056396 159.385788,1037.594360 158.837219,1032.173828 
	C158.293747,1026.803955 158.885620,1021.319031 159.077087,1015.489868 
z"/>
<path fill="#B6A6BE" opacity="1.000000" stroke="none" 
	d="
M444.017395,617.668457 
	C442.241425,610.831421 443.652344,606.599243 447.941254,605.039307 
	C452.212769,603.485718 456.824768,605.060181 458.732117,608.723145 
	C460.750275,612.598877 459.647156,618.085815 456.369385,620.475769 
	C452.613892,623.214050 447.965118,622.281189 444.017395,617.668457 
z"/>
<path fill="#B8A8C0" opacity="1.000000" stroke="none" 
	d="
M316.641510,624.484314 
	C318.667114,629.721741 317.543976,632.782837 313.344330,634.416687 
	C308.437286,636.325684 302.006348,634.614014 300.892914,630.613647 
	C300.368958,628.731140 300.793060,625.387817 302.066467,624.458008 
	C304.508270,622.675110 307.812164,621.584412 310.858643,621.306763 
	C312.606049,621.147461 314.550537,623.150024 316.641510,624.484314 
z"/>
<path fill="#B6A6BE" opacity="1.000000" stroke="none" 
	d="
M316.838470,610.681885 
	C313.012115,616.487854 308.160034,617.626648 303.923950,614.069580 
	C300.477081,611.175232 301.087952,606.720154 305.176331,604.936035 
	C310.517029,602.605408 315.718292,604.985291 316.838470,610.681885 
z"/>
<path fill="#FFAA0E" opacity="1.000000" stroke="none" 
	d="
M466.153687,494.901001 
	C465.030762,496.871765 463.912384,498.421722 462.794006,499.971649 
	C461.737152,498.386993 459.790466,496.777588 459.833710,495.223511 
	C459.897278,492.938751 461.085083,488.959656 462.314941,488.749329 
	C466.360870,488.057526 466.015137,491.718903 466.153687,494.901001 
z"/>
<path fill="#FEA401" opacity="1.000000" stroke="none" 
	d="
M455.308380,486.407776 
	C455.049377,486.038727 455.124329,485.519684 455.617981,484.983948 
	C455.905243,485.397430 455.773804,485.827637 455.308380,486.407776 
z"/>
<path fill="#FFAA0E" opacity="1.000000" stroke="none" 
	d="
M443.769470,472.615479 
	C443.895782,473.342438 444.072510,473.721893 443.968658,473.994354 
	C443.087738,476.304504 442.155762,478.595184 441.239014,480.891693 
	C440.147522,480.330933 438.145538,479.810638 438.118530,479.202576 
	C437.984955,476.198151 437.378906,472.520721 438.822449,470.310333 
	C440.764771,467.336090 442.659058,469.865387 443.769470,472.615479 
z"/>
<path fill="#FFAA0E" opacity="1.000000" stroke="none" 
	d="
M154.670410,488.979309 
	C151.625519,489.010254 149.027023,489.010254 145.927414,489.010254 
	C147.672684,483.341187 149.256393,478.196869 151.272827,471.647064 
	C153.132874,477.669159 154.622772,482.346405 155.969101,487.064606 
	C156.113388,487.570282 155.421082,488.314697 154.670410,488.979309 
z"/>
</svg>